<?xml version="1.0" encoding="UTF-8" standalone="no"?><svg xmlns="http://www.w3.org/2000/svg" xmlns:xlink="http://www.w3.org/1999/xlink" contentScriptType="application/ecmascript" contentStyleType="text/css" height="718px" preserveAspectRatio="none" style="width:1052px;height:718px;" version="1.1" viewBox="0 0 1052 718" width="1052px" zoomAndPan="magnify"><defs><filter height="300%" id="f1rhpmb0ukfwh9" width="300%" x="-1" y="-1"><feGaussianBlur result="blurOut" stdDeviation="2.0"/><feColorMatrix in="blurOut" result="blurOut2" type="matrix" values="0 0 0 0 0 0 0 0 0 0 0 0 0 0 0 0 0 0 .4 0"/><feOffset dx="4.0" dy="4.0" in="blurOut2" result="blurOut3"/><feBlend in="SourceGraphic" in2="blurOut3" mode="normal"/></filter></defs><g><!--MD5=[3d0023649c2f8d242a0aff43ad3446f1]
class BeamSwitchDetector--><rect fill="#FEFECE" filter="url(#f1rhpmb0ukfwh9)" height="265.6797" id="BeamSwitchDetector" style="stroke: #A80036; stroke-width: 1.5;" width="263" x="6" y="442"/><ellipse cx="68.25" cy="458" fill="#ADD1B2" rx="11" ry="11" style="stroke: #A80036; stroke-width: 1.0;"/><path d="M71.2188,463.6406 Q70.6406,463.9375 70,464.0781 Q69.3594,464.2344 68.6563,464.2344 Q66.1563,464.2344 64.8281,462.5938 Q63.5156,460.9375 63.5156,457.8125 Q63.5156,454.6875 64.8281,453.0313 Q66.1563,451.375 68.6563,451.375 Q69.3594,451.375 70,451.5313 Q70.6563,451.6875 71.2188,451.9844 L71.2188,454.7031 Q70.5938,454.125 70,453.8594 Q69.4063,453.5781 68.7813,453.5781 Q67.4375,453.5781 66.75,454.6563 Q66.0625,455.7188 66.0625,457.8125 Q66.0625,459.9063 66.75,460.9844 Q67.4375,462.0469 68.7813,462.0469 Q69.4063,462.0469 70,461.7813 Q70.5938,461.5 71.2188,460.9219 L71.2188,463.6406 Z "/><text fill="#000000" font-family="sans-serif" font-size="12" lengthAdjust="spacingAndGlyphs" textLength="130" x="88.75" y="462.1543">BeamSwitchDetector</text><line style="stroke: #A80036; stroke-width: 1.5;" x1="7" x2="268" y1="474" y2="474"/><rect fill="none" height="6" style="stroke: #C82930; stroke-width: 1.0;" width="6" x="14" y="482"/><text fill="#000000" font-family="sans-serif" font-size="11" lengthAdjust="spacingAndGlyphs" textLength="78" x="26" y="488.2104">irrecv : IRrecv</text><rect fill="none" height="6" style="stroke: #C82930; stroke-width: 1.0;" width="6" x="14" y="494.8047"/><text fill="#000000" font-family="sans-serif" font-size="11" lengthAdjust="spacingAndGlyphs" textLength="203" x="26" y="501.0151">receive_task_handle : TaskHandle_t</text><rect fill="none" height="6" style="stroke: #C82930; stroke-width: 1.0;" width="6" x="14" y="507.6094"/><text fill="#000000" font-family="sans-serif" font-size="11" lengthAdjust="spacingAndGlyphs" textLength="65" x="26" y="513.8198">state : bool</text><rect fill="none" height="6" style="stroke: #C82930; stroke-width: 1.0;" width="6" x="14" y="520.4141"/><text fill="#000000" font-family="sans-serif" font-size="11" lengthAdjust="spacingAndGlyphs" textLength="139" x="26" y="526.6245">results : decode_results</text><rect fill="none" height="6" style="stroke: #C82930; stroke-width: 1.0;" width="6" x="14" y="533.2188"/><text fill="#000000" font-family="sans-serif" font-size="11" lengthAdjust="spacingAndGlyphs" textLength="118" x="26" y="539.4292">lastReceiveTime : int</text><rect fill="none" height="6" style="stroke: #C82930; stroke-width: 1.0;" width="6" x="14" y="546.0234"/><text fill="#000000" font-family="sans-serif" font-size="11" lengthAdjust="spacingAndGlyphs" text-decoration="underline" textLength="126" x="26" y="552.2339">emitter : static IRsend</text><rect fill="none" height="6" style="stroke: #C82930; stroke-width: 1.0;" width="6" x="14" y="558.8281"/><text fill="#000000" font-family="sans-serif" font-size="11" lengthAdjust="spacingAndGlyphs" text-decoration="underline" textLength="222" x="26" y="565.0386">emit_task_handle : static TaskHandle_t</text><ellipse cx="17" cy="574.6328" fill="none" rx="3" ry="3" style="stroke: #038048; stroke-width: 1.0;"/><text fill="#000000" font-family="sans-serif" font-size="11" lengthAdjust="spacingAndGlyphs" text-decoration="underline" textLength="96" x="26" y="577.8433">emit : static bool</text><rect fill="none" height="6" style="stroke: #C82930; stroke-width: 1.0;" width="6" x="14" y="584.4375"/><text fill="#000000" font-family="sans-serif" font-size="11" lengthAdjust="spacingAndGlyphs" text-decoration="underline" textLength="159" x="26" y="590.6479">lastEmitTime : static int64_t</text><rect fill="none" height="6" style="stroke: #C82930; stroke-width: 1.0;" width="6" x="14" y="597.2422"/><text fill="#000000" font-family="sans-serif" font-size="11" lengthAdjust="spacingAndGlyphs" text-decoration="underline" textLength="156" x="26" y="603.4526">rawSignal : static uint16_t[]</text><line style="stroke: #A80036; stroke-width: 1.5;" x1="7" x2="268" y1="610.0469" y2="610.0469"/><ellipse cx="17" cy="621.0469" fill="#84BE84" rx="3" ry="3" style="stroke: #038048; stroke-width: 1.0;"/><text fill="#000000" font-family="sans-serif" font-size="11" lengthAdjust="spacingAndGlyphs" textLength="237" x="26" y="624.2573">BeamSwitchDetector(int beamSwitchRPin)</text><ellipse cx="17" cy="633.8516" fill="#84BE84" rx="3" ry="3" style="stroke: #038048; stroke-width: 1.0;"/><text fill="#000000" font-family="sans-serif" font-size="11" lengthAdjust="spacingAndGlyphs" textLength="135" x="26" y="637.062">~BeamSwitchDetector()</text><ellipse cx="17" cy="646.6563" fill="#84BE84" rx="3" ry="3" style="stroke: #038048; stroke-width: 1.0;"/><text fill="#000000" font-family="sans-serif" font-size="11" lengthAdjust="spacingAndGlyphs" textLength="92" x="26" y="649.8667">getState() : bool</text><ellipse cx="17" cy="659.4609" fill="#84BE84" rx="3" ry="3" style="stroke: #038048; stroke-width: 1.0;"/><text fill="#000000" font-family="sans-serif" font-size="11" lengthAdjust="spacingAndGlyphs" textLength="75" x="26" y="662.6714">check() : void</text><rect fill="#F24D5C" height="6" style="stroke: #C82930; stroke-width: 1.0;" width="6" x="14" y="669.2656"/><text fill="#000000" font-family="sans-serif" font-size="11" lengthAdjust="spacingAndGlyphs" text-decoration="underline" textLength="211" x="26" y="675.4761">emit_task(void* pvParameters) : void</text><ellipse cx="17" cy="685.0703" fill="#84BE84" rx="3" ry="3" style="stroke: #038048; stroke-width: 1.0;"/><text fill="#000000" font-family="sans-serif" font-size="11" lengthAdjust="spacingAndGlyphs" textLength="75" x="26" y="688.2808">setup() : void</text><ellipse cx="17" cy="697.875" fill="#84BE84" rx="3" ry="3" style="stroke: #038048; stroke-width: 1.0;"/><text fill="#000000" font-family="sans-serif" font-size="11" lengthAdjust="spacingAndGlyphs" text-decoration="underline" textLength="177" x="26" y="701.0854">setup_common_emitter() : void</text><!--MD5=[0ce16f4c3d7cb0b09c708de0157594c0]
class LinearActuator--><rect fill="#FEFECE" filter="url(#f1rhpmb0ukfwh9)" height="73.6094" id="LinearActuator" style="stroke: #A80036; stroke-width: 1.5;" width="288" x="304.5" y="538"/><ellipse cx="398.25" cy="554" fill="#ADD1B2" rx="11" ry="11" style="stroke: #A80036; stroke-width: 1.0;"/><path d="M401.2188,559.6406 Q400.6406,559.9375 400,560.0781 Q399.3594,560.2344 398.6563,560.2344 Q396.1563,560.2344 394.8281,558.5938 Q393.5156,556.9375 393.5156,553.8125 Q393.5156,550.6875 394.8281,549.0313 Q396.1563,547.375 398.6563,547.375 Q399.3594,547.375 400,547.5313 Q400.6563,547.6875 401.2188,547.9844 L401.2188,550.7031 Q400.5938,550.125 400,549.8594 Q399.4063,549.5781 398.7813,549.5781 Q397.4375,549.5781 396.75,550.6563 Q396.0625,551.7188 396.0625,553.8125 Q396.0625,555.9063 396.75,556.9844 Q397.4375,558.0469 398.7813,558.0469 Q399.4063,558.0469 400,557.7813 Q400.5938,557.5 401.2188,556.9219 L401.2188,559.6406 Z "/><text fill="#000000" font-family="sans-serif" font-size="12" lengthAdjust="spacingAndGlyphs" textLength="92" x="418.75" y="558.1543">LinearActuator</text><line style="stroke: #A80036; stroke-width: 1.5;" x1="305.5" x2="591.5" y1="570" y2="570"/><line style="stroke: #A80036; stroke-width: 1.5;" x1="305.5" x2="591.5" y1="578" y2="578"/><ellipse cx="315.5" cy="589" fill="#84BE84" rx="3" ry="3" style="stroke: #038048; stroke-width: 1.0;"/><text fill="#000000" font-family="sans-serif" font-size="11" lengthAdjust="spacingAndGlyphs" textLength="262" x="324.5" y="592.2104">LinearActuator(int stepPin, int dirPin, int rxPin)</text><ellipse cx="315.5" cy="601.8047" fill="#84BE84" rx="3" ry="3" style="stroke: #038048; stroke-width: 1.0;"/><text fill="#000000" font-family="sans-serif" font-size="11" lengthAdjust="spacingAndGlyphs" textLength="99" x="324.5" y="605.0151">~LinearActuator()</text><!--MD5=[31b2194eebf44df4ffa280c9796f03c1]
class PING--><rect fill="#FEFECE" filter="url(#f1rhpmb0ukfwh9)" height="176.0469" id="PING" style="stroke: #A80036; stroke-width: 1.5;" width="294" x="514.5" y="8"/><ellipse cx="642.75" cy="24" fill="#ADD1B2" rx="11" ry="11" style="stroke: #A80036; stroke-width: 1.0;"/><path d="M645.7188,29.6406 Q645.1406,29.9375 644.5,30.0781 Q643.8594,30.2344 643.1563,30.2344 Q640.6563,30.2344 639.3281,28.5938 Q638.0156,26.9375 638.0156,23.8125 Q638.0156,20.6875 639.3281,19.0313 Q640.6563,17.375 643.1563,17.375 Q643.8594,17.375 644.5,17.5313 Q645.1563,17.6875 645.7188,17.9844 L645.7188,20.7031 Q645.0938,20.125 644.5,19.8594 Q643.9063,19.5781 643.2813,19.5781 Q641.9375,19.5781 641.25,20.6563 Q640.5625,21.7188 640.5625,23.8125 Q640.5625,25.9063 641.25,26.9844 Q641.9375,28.0469 643.2813,28.0469 Q643.9063,28.0469 644.5,27.7813 Q645.0938,27.5 645.7188,26.9219 L645.7188,29.6406 Z "/><text fill="#000000" font-family="sans-serif" font-size="12" lengthAdjust="spacingAndGlyphs" textLength="29" x="663.25" y="28.1543">PING</text><line style="stroke: #A80036; stroke-width: 1.5;" x1="515.5" x2="807.5" y1="40" y2="40"/><ellipse cx="525.5" cy="51" fill="none" rx="3" ry="3" style="stroke: #038048; stroke-width: 1.0;"/><text fill="#000000" font-family="sans-serif" font-size="11" lengthAdjust="spacingAndGlyphs" text-decoration="underline" textLength="124" x="534.5" y="54.2104">player1 : static Player</text><ellipse cx="525.5" cy="63.8047" fill="none" rx="3" ry="3" style="stroke: #038048; stroke-width: 1.0;"/><text fill="#000000" font-family="sans-serif" font-size="11" lengthAdjust="spacingAndGlyphs" text-decoration="underline" textLength="124" x="534.5" y="67.0151">player2 : static Player</text><ellipse cx="525.5" cy="76.6094" fill="none" rx="3" ry="3" style="stroke: #038048; stroke-width: 1.0;"/><text fill="#000000" font-family="sans-serif" font-size="11" lengthAdjust="spacingAndGlyphs" text-decoration="underline" textLength="124" x="534.5" y="79.8198">player3 : static Player</text><ellipse cx="525.5" cy="89.4141" fill="none" rx="3" ry="3" style="stroke: #038048; stroke-width: 1.0;"/><text fill="#000000" font-family="sans-serif" font-size="11" lengthAdjust="spacingAndGlyphs" text-decoration="underline" textLength="124" x="534.5" y="92.6245">player4 : static Player</text><ellipse cx="525.5" cy="102.2188" fill="none" rx="3" ry="3" style="stroke: #038048; stroke-width: 1.0;"/><text fill="#000000" font-family="sans-serif" font-size="11" lengthAdjust="spacingAndGlyphs" text-decoration="underline" textLength="268" x="534.5" y="105.4292">raspComManager : static RaspComManagment</text><ellipse cx="525.5" cy="115.0234" fill="none" rx="3" ry="3" style="stroke: #038048; stroke-width: 1.0;"/><text fill="#000000" font-family="sans-serif" font-size="11" lengthAdjust="spacingAndGlyphs" text-decoration="underline" textLength="267" x="534.5" y="118.2339">BeamSwitch_task_handle : static TaskHandle_t</text><line style="stroke: #A80036; stroke-width: 1.5;" x1="515.5" x2="807.5" y1="124.8281" y2="124.8281"/><ellipse cx="525.5" cy="135.8281" fill="#84BE84" rx="3" ry="3" style="stroke: #038048; stroke-width: 1.0;"/><text fill="#000000" font-family="sans-serif" font-size="11" lengthAdjust="spacingAndGlyphs" textLength="35" x="534.5" y="139.0386">PING()</text><ellipse cx="525.5" cy="148.6328" fill="#84BE84" rx="3" ry="3" style="stroke: #038048; stroke-width: 1.0;"/><text fill="#000000" font-family="sans-serif" font-size="11" lengthAdjust="spacingAndGlyphs" textLength="44" x="534.5" y="151.8433">~PING()</text><ellipse cx="525.5" cy="161.4375" fill="#84BE84" rx="3" ry="3" style="stroke: #038048; stroke-width: 1.0;"/><text fill="#000000" font-family="sans-serif" font-size="11" lengthAdjust="spacingAndGlyphs" text-decoration="underline" textLength="256" x="534.5" y="164.6479">BeamSwitch_task(void* pvParameters) : void</text><ellipse cx="525.5" cy="174.2422" fill="#84BE84" rx="3" ry="3" style="stroke: #038048; stroke-width: 1.0;"/><text fill="#000000" font-family="sans-serif" font-size="11" lengthAdjust="spacingAndGlyphs" text-decoration="underline" textLength="75" x="534.5" y="177.4526">setup() : void</text><!--MD5=[2cb47ba637a0d19583e6199456f6ad0b]
class Player--><rect fill="#FEFECE" filter="url(#f1rhpmb0ukfwh9)" height="137.6328" id="Player" style="stroke: #A80036; stroke-width: 1.5;" width="451" x="223" y="244"/><ellipse cx="425.25" cy="260" fill="#ADD1B2" rx="11" ry="11" style="stroke: #A80036; stroke-width: 1.0;"/><path d="M428.2188,265.6406 Q427.6406,265.9375 427,266.0781 Q426.3594,266.2344 425.6563,266.2344 Q423.1563,266.2344 421.8281,264.5938 Q420.5156,262.9375 420.5156,259.8125 Q420.5156,256.6875 421.8281,255.0313 Q423.1563,253.375 425.6563,253.375 Q426.3594,253.375 427,253.5313 Q427.6563,253.6875 428.2188,253.9844 L428.2188,256.7031 Q427.5938,256.125 427,255.8594 Q426.4063,255.5781 425.7813,255.5781 Q424.4375,255.5781 423.75,256.6563 Q423.0625,257.7188 423.0625,259.8125 Q423.0625,261.9063 423.75,262.9844 Q424.4375,264.0469 425.7813,264.0469 Q426.4063,264.0469 427,263.7813 Q427.5938,263.5 428.2188,262.9219 L428.2188,265.6406 Z "/><text fill="#000000" font-family="sans-serif" font-size="12" lengthAdjust="spacingAndGlyphs" textLength="38" x="445.75" y="264.1543">Player</text><line style="stroke: #A80036; stroke-width: 1.5;" x1="224" x2="673" y1="276" y2="276"/><ellipse cx="234" cy="287" fill="none" rx="3" ry="3" style="stroke: #038048; stroke-width: 1.0;"/><text fill="#000000" font-family="sans-serif" font-size="11" lengthAdjust="spacingAndGlyphs" textLength="199" x="243" y="290.2104">beamSwitch : BeamSwitchDetector</text><ellipse cx="234" cy="299.8047" fill="none" rx="3" ry="3" style="stroke: #038048; stroke-width: 1.0;"/><text fill="#000000" font-family="sans-serif" font-size="11" lengthAdjust="spacingAndGlyphs" textLength="141" x="243" y="303.0151">actuator : LinearActuator</text><ellipse cx="234" cy="312.6094" fill="none" rx="3" ry="3" style="stroke: #038048; stroke-width: 1.0;"/><text fill="#000000" font-family="sans-serif" font-size="11" lengthAdjust="spacingAndGlyphs" textLength="109" x="243" y="315.8198">solenoid : Solenoid</text><line style="stroke: #A80036; stroke-width: 1.5;" x1="224" x2="673" y1="322.4141" y2="322.4141"/><ellipse cx="234" cy="333.4141" fill="#84BE84" rx="3" ry="3" style="stroke: #038048; stroke-width: 1.0;"/><text fill="#000000" font-family="sans-serif" font-size="11" lengthAdjust="spacingAndGlyphs" textLength="425" x="243" y="336.6245">Player(int stepPin, int dirPin, int rxPin, int solenoidPin, int beamSwitchRPin)</text><ellipse cx="234" cy="346.2188" fill="#84BE84" rx="3" ry="3" style="stroke: #038048; stroke-width: 1.0;"/><text fill="#000000" font-family="sans-serif" font-size="11" lengthAdjust="spacingAndGlyphs" textLength="52" x="243" y="349.4292">~Player()</text><ellipse cx="234" cy="359.0234" fill="#84BE84" rx="3" ry="3" style="stroke: #038048; stroke-width: 1.0;"/><text fill="#000000" font-family="sans-serif" font-size="11" lengthAdjust="spacingAndGlyphs" textLength="58" x="243" y="362.2339">loop() : int</text><ellipse cx="234" cy="371.8281" fill="#84BE84" rx="3" ry="3" style="stroke: #038048; stroke-width: 1.0;"/><text fill="#000000" font-family="sans-serif" font-size="11" lengthAdjust="spacingAndGlyphs" textLength="66" x="243" y="375.0386">setup() : int</text><!--MD5=[f95de7c9be227099f093800bd026f9c0]
class RaspComManagment--><rect fill="#FEFECE" filter="url(#f1rhpmb0ukfwh9)" height="86.4141" id="RaspComManagment" style="stroke: #A80036; stroke-width: 1.5;" width="332" x="709.5" y="270"/><ellipse cx="805.25" cy="286" fill="#ADD1B2" rx="11" ry="11" style="stroke: #A80036; stroke-width: 1.0;"/><path d="M808.2188,291.6406 Q807.6406,291.9375 807,292.0781 Q806.3594,292.2344 805.6563,292.2344 Q803.1563,292.2344 801.8281,290.5938 Q800.5156,288.9375 800.5156,285.8125 Q800.5156,282.6875 801.8281,281.0313 Q803.1563,279.375 805.6563,279.375 Q806.3594,279.375 807,279.5313 Q807.6563,279.6875 808.2188,279.9844 L808.2188,282.7031 Q807.5938,282.125 807,281.8594 Q806.4063,281.5781 805.7813,281.5781 Q804.4375,281.5781 803.75,282.6563 Q803.0625,283.7188 803.0625,285.8125 Q803.0625,287.9063 803.75,288.9844 Q804.4375,290.0469 805.7813,290.0469 Q806.4063,290.0469 807,289.7813 Q807.5938,289.5 808.2188,288.9219 L808.2188,291.6406 Z "/><text fill="#000000" font-family="sans-serif" font-size="12" lengthAdjust="spacingAndGlyphs" textLength="132" x="825.75" y="290.1543">RaspComManagment</text><line style="stroke: #A80036; stroke-width: 1.5;" x1="710.5" x2="1040.5" y1="302" y2="302"/><line style="stroke: #A80036; stroke-width: 1.5;" x1="710.5" x2="1040.5" y1="310" y2="310"/><ellipse cx="720.5" cy="321" fill="#84BE84" rx="3" ry="3" style="stroke: #038048; stroke-width: 1.0;"/><text fill="#000000" font-family="sans-serif" font-size="11" lengthAdjust="spacingAndGlyphs" textLength="306" x="729.5" y="324.2104">RaspComManagment(int txPin, int rxPin, int baudRate)</text><ellipse cx="720.5" cy="333.8047" fill="#84BE84" rx="3" ry="3" style="stroke: #038048; stroke-width: 1.0;"/><text fill="#000000" font-family="sans-serif" font-size="11" lengthAdjust="spacingAndGlyphs" textLength="137" x="729.5" y="337.0151">~RaspComManagment()</text><ellipse cx="720.5" cy="346.6094" fill="#84BE84" rx="3" ry="3" style="stroke: #038048; stroke-width: 1.0;"/><text fill="#000000" font-family="sans-serif" font-size="11" lengthAdjust="spacingAndGlyphs" textLength="75" x="729.5" y="349.8198">setup() : void</text><!--MD5=[774f4e82a168727ea092e2c64952d764]
class Solenoid--><rect fill="#FEFECE" filter="url(#f1rhpmb0ukfwh9)" height="73.6094" id="Solenoid" style="stroke: #A80036; stroke-width: 1.5;" width="166" x="627.5" y="538"/><ellipse cx="679.25" cy="554" fill="#ADD1B2" rx="11" ry="11" style="stroke: #A80036; stroke-width: 1.0;"/><path d="M682.2188,559.6406 Q681.6406,559.9375 681,560.0781 Q680.3594,560.2344 679.6563,560.2344 Q677.1563,560.2344 675.8281,558.5938 Q674.5156,556.9375 674.5156,553.8125 Q674.5156,550.6875 675.8281,549.0313 Q677.1563,547.375 679.6563,547.375 Q680.3594,547.375 681,547.5313 Q681.6563,547.6875 682.2188,547.9844 L682.2188,550.7031 Q681.5938,550.125 681,549.8594 Q680.4063,549.5781 679.7813,549.5781 Q678.4375,549.5781 677.75,550.6563 Q677.0625,551.7188 677.0625,553.8125 Q677.0625,555.9063 677.75,556.9844 Q678.4375,558.0469 679.7813,558.0469 Q680.4063,558.0469 681,557.7813 Q681.5938,557.5 682.2188,556.9219 L682.2188,559.6406 Z "/><text fill="#000000" font-family="sans-serif" font-size="12" lengthAdjust="spacingAndGlyphs" textLength="54" x="699.75" y="558.1543">Solenoid</text><line style="stroke: #A80036; stroke-width: 1.5;" x1="628.5" x2="792.5" y1="570" y2="570"/><line style="stroke: #A80036; stroke-width: 1.5;" x1="628.5" x2="792.5" y1="578" y2="578"/><ellipse cx="638.5" cy="589" fill="#84BE84" rx="3" ry="3" style="stroke: #038048; stroke-width: 1.0;"/><text fill="#000000" font-family="sans-serif" font-size="11" lengthAdjust="spacingAndGlyphs" textLength="140" x="647.5" y="592.2104">Solenoid(int solenoidPin)</text><ellipse cx="638.5" cy="601.8047" fill="#84BE84" rx="3" ry="3" style="stroke: #038048; stroke-width: 1.0;"/><text fill="#000000" font-family="sans-serif" font-size="11" lengthAdjust="spacingAndGlyphs" textLength="66" x="647.5" y="605.0151">~Solenoid()</text><!--MD5=[3d3440c247ea6d9549ddae07c5b26dc8]
reverse link PING to Player--><path d="M565.87,193.53 C549.04,210.52 531.84,227.88 515.98,243.89 " fill="none" id="PING&lt;-Player" style="stroke: #A80036; stroke-width: 1.0;"/><polygon fill="#A80036" points="575.17,184.14,568.1045,185.5817,566.7177,192.6582,573.7833,191.2165,575.17,184.14" style="stroke: #A80036; stroke-width: 1.0;"/><text fill="#000000" font-family="sans-serif" font-size="13" lengthAdjust="spacingAndGlyphs" textLength="8" x="559.6895" y="204.1306">4</text><!--MD5=[b067205dac567a7f0e4de4a1e8278f95]
reverse link PING to RaspComManagment--><path d="M757.6,193.55 C784.24,220.31 811.78,247.98 833.54,269.84 " fill="none" id="PING&lt;-RaspComManagment" style="stroke: #A80036; stroke-width: 1.0;"/><polygon fill="#A80036" points="748.23,184.14,749.6277,191.2143,756.6955,192.645,755.2978,185.5707,748.23,184.14" style="stroke: #A80036; stroke-width: 1.0;"/><!--MD5=[940de9e3ccc6844dc8fdf7ae5140b682]
reverse link Player to BeamSwitchDetector--><path d="M350.05,390.35 C328.9,407.14 306.82,425 286.5,442 C280.8,446.77 275.01,451.67 269.18,456.64 " fill="none" id="Player&lt;-BeamSwitchDetector" style="stroke: #A80036; stroke-width: 1.0;"/><polygon fill="#A80036" points="360.34,382.2,353.1532,382.7914,350.9349,389.6528,358.1217,389.0614,360.34,382.2" style="stroke: #A80036; stroke-width: 1.0;"/><!--MD5=[c8a40b61ed2cae938dabd67da6109521]
reverse link Player to LinearActuator--><path d="M448.5,395.47 C448.5,443.19 448.5,501.08 448.5,537.74 " fill="none" id="Player&lt;-LinearActuator" style="stroke: #A80036; stroke-width: 1.0;"/><polygon fill="#A80036" points="448.5,382.31,444.5,388.31,448.5,394.31,452.5,388.31,448.5,382.31" style="stroke: #A80036; stroke-width: 1.0;"/><!--MD5=[0df571f1bdc863a16490465303cac24b]
reverse link Player to Solenoid--><path d="M552.39,390.39 C572.12,406.6 592.03,424.21 609.5,442 C638.81,471.86 667.32,510.24 686.53,537.91 " fill="none" id="Player&lt;-Solenoid" style="stroke: #A80036; stroke-width: 1.0;"/><polygon fill="#A80036" points="542.1,382.05,544.238,388.9369,551.4174,389.6121,549.2794,382.7253,542.1,382.05" style="stroke: #A80036; stroke-width: 1.0;"/><!--MD5=[ce697b9c767f5572e0247b828b1f6ab3]
@startuml






class BeamSwitchDetector {
	+BeamSwitchDetector(int beamSwitchRPin)
	+~BeamSwitchDetector()
	-irrecv : IRrecv
	-receive_task_handle : TaskHandle_t
	+getState() : bool
	-state : bool
	-results : decode_results
	-lastReceiveTime : int
	-{static} emitter : static IRsend
	-{static} emit_task_handle : static TaskHandle_t
	+{static} emit : static bool
	-{static} lastEmitTime : static int64_t
	-{static} rawSignal : static uint16_t[]
	+check() : void
	-{static} emit_task(void* pvParameters) : void
	+setup() : void
	+{static} setup_common_emitter() : void
}


class LinearActuator {
	+LinearActuator(int stepPin, int dirPin, int rxPin)
	+~LinearActuator()
}


class PING {
	+PING()
	+~PING()
	+{static} player1 : static Player
	+{static} player2 : static Player
	+{static} player3 : static Player
	+{static} player4 : static Player
	+{static} raspComManager : static RaspComManagment
	+{static} BeamSwitch_task_handle : static TaskHandle_t
	+{static} BeamSwitch_task(void* pvParameters) : void
	+{static} setup() : void
}


class Player {
	+Player(int stepPin, int dirPin, int rxPin, int solenoidPin, int beamSwitchRPin)
	+~Player()
	+beamSwitch : BeamSwitchDetector
	+actuator : LinearActuator
	+solenoid : Solenoid
	+loop() : int
	+setup() : int
}


class RaspComManagment {
	+RaspComManagment(int txPin, int rxPin, int baudRate)
	+~RaspComManagment()
	+setup() : void
}


class Solenoid {
	+Solenoid(int solenoidPin)
	+~Solenoid()
}










PING "4" *- - Player


PING *- - RaspComManagment


Player *- - BeamSwitchDetector


Player *- - LinearActuator


Player *- - Solenoid









@enduml

PlantUML version 1.2020.02(Sun Mar 01 10:22:07 UTC 2020)
(GPL source distribution)
Java Runtime: OpenJDK Runtime Environment
JVM: OpenJDK 64-Bit Server VM
Java Version: 11.0.24+8
Operating System: Linux
Default Encoding: UTF-8
Language: en
Country: null
--></g></svg>