<?xml version="1.0" encoding="UTF-8" standalone="no"?><svg xmlns="http://www.w3.org/2000/svg" xmlns:xlink="http://www.w3.org/1999/xlink" contentScriptType="application/ecmascript" contentStyleType="text/css" height="718px" preserveAspectRatio="none" style="width:1056px;height:718px;" version="1.1" viewBox="0 0 1056 718" width="1056px" zoomAndPan="magnify"><defs><filter height="300%" id="f55fg0otu9usq" width="300%" x="-1" y="-1"><feGaussianBlur result="blurOut" stdDeviation="2.0"/><feColorMatrix in="blurOut" result="blurOut2" type="matrix" values="0 0 0 0 0 0 0 0 0 0 0 0 0 0 0 0 0 0 .4 0"/><feOffset dx="4.0" dy="4.0" in="blurOut2" result="blurOut3"/><feBlend in="SourceGraphic" in2="blurOut3" mode="normal"/></filter></defs><g><!--MD5=[845caa0904f1411049f3b69efd709ed4]
cluster RunStatus--><polygon fill="#FFFFFF" filter="url(#f55fg0otu9usq)" points="847,24,933,24,940,46.2969,953,46.2969,953,149,847,149,847,24" style="stroke: #000000; stroke-width: 1.5;"/><line style="stroke: #000000; stroke-width: 1.5;" x1="847" x2="940" y1="46.2969" y2="46.2969"/><text fill="#000000" font-family="sans-serif" font-size="14" font-weight="bold" lengthAdjust="spacingAndGlyphs" textLength="80" x="851" y="38.9951">RunStatus</text><!--MD5=[8af91c3b66a8a7491d8ba0f9fda35749]
class RunStatus.Status--><rect fill="#FEFECE" filter="url(#f55fg0otu9usq)" height="73.6094" id="RunStatus.Status" style="stroke: #A80036; stroke-width: 1.5;" width="73" x="863.5" y="59"/><ellipse cx="878.5" cy="75" fill="#EB937F" rx="11" ry="11" style="stroke: #A80036; stroke-width: 1.0;"/><path d="M882.6094,81 L874.8906,81 L874.8906,68.6094 L882.6094,68.6094 L882.6094,70.7656 L877.3438,70.7656 L877.3438,73.4375 L882.1094,73.4375 L882.1094,75.5938 L877.3438,75.5938 L877.3438,78.8438 L882.6094,78.8438 L882.6094,81 Z "/><text fill="#000000" font-family="sans-serif" font-size="12" lengthAdjust="spacingAndGlyphs" textLength="41" x="892.5" y="79.1543">Status</text><line style="stroke: #A80036; stroke-width: 1.5;" x1="864.5" x2="935.5" y1="91" y2="91"/><text fill="#000000" font-family="sans-serif" font-size="11" lengthAdjust="spacingAndGlyphs" textLength="60" x="869.5" y="105.2104">COLLISION</text><text fill="#000000" font-family="sans-serif" font-size="11" lengthAdjust="spacingAndGlyphs" textLength="51" x="869.5" y="118.0151">RUNNING</text><line style="stroke: #A80036; stroke-width: 1.5;" x1="864.5" x2="935.5" y1="124.6094" y2="124.6094"/><!--MD5=[68fcd56d8725033e494281892f0f8fc2]
class BeamSwitch--><rect fill="#FEFECE" filter="url(#f55fg0otu9usq)" height="265.6797" id="BeamSwitch" style="stroke: #A80036; stroke-width: 1.5;" width="248" x="6" y="442"/><ellipse cx="88.25" cy="458" fill="#ADD1B2" rx="11" ry="11" style="stroke: #A80036; stroke-width: 1.0;"/><path d="M91.2188,463.6406 Q90.6406,463.9375 90,464.0781 Q89.3594,464.2344 88.6563,464.2344 Q86.1563,464.2344 84.8281,462.5938 Q83.5156,460.9375 83.5156,457.8125 Q83.5156,454.6875 84.8281,453.0313 Q86.1563,451.375 88.6563,451.375 Q89.3594,451.375 90,451.5313 Q90.6563,451.6875 91.2188,451.9844 L91.2188,454.7031 Q90.5938,454.125 90,453.8594 Q89.4063,453.5781 88.7813,453.5781 Q87.4375,453.5781 86.75,454.6563 Q86.0625,455.7188 86.0625,457.8125 Q86.0625,459.9063 86.75,460.9844 Q87.4375,462.0469 88.7813,462.0469 Q89.4063,462.0469 90,461.7813 Q90.5938,461.5 91.2188,460.9219 L91.2188,463.6406 Z "/><text fill="#000000" font-family="sans-serif" font-size="12" lengthAdjust="spacingAndGlyphs" textLength="75" x="108.75" y="462.1543">BeamSwitch</text><line style="stroke: #A80036; stroke-width: 1.5;" x1="7" x2="253" y1="474" y2="474"/><rect fill="none" height="6" style="stroke: #C82930; stroke-width: 1.0;" width="6" x="14" y="482"/><text fill="#000000" font-family="sans-serif" font-size="11" lengthAdjust="spacingAndGlyphs" textLength="78" x="26" y="488.2104">irrecv : IRrecv</text><rect fill="none" height="6" style="stroke: #C82930; stroke-width: 1.0;" width="6" x="14" y="494.8047"/><text fill="#000000" font-family="sans-serif" font-size="11" lengthAdjust="spacingAndGlyphs" textLength="203" x="26" y="501.0151">receive_task_handle : TaskHandle_t</text><rect fill="none" height="6" style="stroke: #C82930; stroke-width: 1.0;" width="6" x="14" y="507.6094"/><text fill="#000000" font-family="sans-serif" font-size="11" lengthAdjust="spacingAndGlyphs" textLength="65" x="26" y="513.8198">state : bool</text><rect fill="none" height="6" style="stroke: #C82930; stroke-width: 1.0;" width="6" x="14" y="520.4141"/><text fill="#000000" font-family="sans-serif" font-size="11" lengthAdjust="spacingAndGlyphs" textLength="139" x="26" y="526.6245">results : decode_results</text><rect fill="none" height="6" style="stroke: #C82930; stroke-width: 1.0;" width="6" x="14" y="533.2188"/><text fill="#000000" font-family="sans-serif" font-size="11" lengthAdjust="spacingAndGlyphs" textLength="118" x="26" y="539.4292">lastReceiveTime : int</text><rect fill="none" height="6" style="stroke: #C82930; stroke-width: 1.0;" width="6" x="14" y="546.0234"/><text fill="#000000" font-family="sans-serif" font-size="11" lengthAdjust="spacingAndGlyphs" text-decoration="underline" textLength="126" x="26" y="552.2339">emitter : static IRsend</text><rect fill="none" height="6" style="stroke: #C82930; stroke-width: 1.0;" width="6" x="14" y="558.8281"/><text fill="#000000" font-family="sans-serif" font-size="11" lengthAdjust="spacingAndGlyphs" text-decoration="underline" textLength="222" x="26" y="565.0386">emit_task_handle : static TaskHandle_t</text><ellipse cx="17" cy="574.6328" fill="none" rx="3" ry="3" style="stroke: #038048; stroke-width: 1.0;"/><text fill="#000000" font-family="sans-serif" font-size="11" lengthAdjust="spacingAndGlyphs" text-decoration="underline" textLength="96" x="26" y="577.8433">emit : static bool</text><rect fill="none" height="6" style="stroke: #C82930; stroke-width: 1.0;" width="6" x="14" y="584.4375"/><text fill="#000000" font-family="sans-serif" font-size="11" lengthAdjust="spacingAndGlyphs" text-decoration="underline" textLength="159" x="26" y="590.6479">lastEmitTime : static int64_t</text><rect fill="none" height="6" style="stroke: #C82930; stroke-width: 1.0;" width="6" x="14" y="597.2422"/><text fill="#000000" font-family="sans-serif" font-size="11" lengthAdjust="spacingAndGlyphs" text-decoration="underline" textLength="156" x="26" y="603.4526">rawSignal : static uint16_t[]</text><line style="stroke: #A80036; stroke-width: 1.5;" x1="7" x2="253" y1="610.0469" y2="610.0469"/><ellipse cx="17" cy="621.0469" fill="#84BE84" rx="3" ry="3" style="stroke: #038048; stroke-width: 1.0;"/><text fill="#000000" font-family="sans-serif" font-size="11" lengthAdjust="spacingAndGlyphs" textLength="189" x="26" y="624.2573">BeamSwitch(int beamSwitchRPin)</text><ellipse cx="17" cy="633.8516" fill="#84BE84" rx="3" ry="3" style="stroke: #038048; stroke-width: 1.0;"/><text fill="#000000" font-family="sans-serif" font-size="11" lengthAdjust="spacingAndGlyphs" textLength="87" x="26" y="637.062">~BeamSwitch()</text><ellipse cx="17" cy="646.6563" fill="#84BE84" rx="3" ry="3" style="stroke: #038048; stroke-width: 1.0;"/><text fill="#000000" font-family="sans-serif" font-size="11" lengthAdjust="spacingAndGlyphs" textLength="92" x="26" y="649.8667">getState() : bool</text><ellipse cx="17" cy="659.4609" fill="#84BE84" rx="3" ry="3" style="stroke: #038048; stroke-width: 1.0;"/><text fill="#000000" font-family="sans-serif" font-size="11" lengthAdjust="spacingAndGlyphs" textLength="75" x="26" y="662.6714">check() : void</text><rect fill="#F24D5C" height="6" style="stroke: #C82930; stroke-width: 1.0;" width="6" x="14" y="669.2656"/><text fill="#000000" font-family="sans-serif" font-size="11" lengthAdjust="spacingAndGlyphs" text-decoration="underline" textLength="211" x="26" y="675.4761">emit_task(void* pvParameters) : void</text><ellipse cx="17" cy="685.0703" fill="#84BE84" rx="3" ry="3" style="stroke: #038048; stroke-width: 1.0;"/><text fill="#000000" font-family="sans-serif" font-size="11" lengthAdjust="spacingAndGlyphs" textLength="75" x="26" y="688.2808">setup() : void</text><ellipse cx="17" cy="697.875" fill="#84BE84" rx="3" ry="3" style="stroke: #038048; stroke-width: 1.0;"/><text fill="#000000" font-family="sans-serif" font-size="11" lengthAdjust="spacingAndGlyphs" text-decoration="underline" textLength="177" x="26" y="701.0854">setup_common_emitter() : void</text><!--MD5=[0ce16f4c3d7cb0b09c708de0157594c0]
class LinearActuator--><rect fill="#FEFECE" filter="url(#f55fg0otu9usq)" height="265.6797" id="LinearActuator" style="stroke: #A80036; stroke-width: 1.5;" width="307" x="289.5" y="442"/><ellipse cx="392.75" cy="458" fill="#ADD1B2" rx="11" ry="11" style="stroke: #A80036; stroke-width: 1.0;"/><path d="M395.7188,463.6406 Q395.1406,463.9375 394.5,464.0781 Q393.8594,464.2344 393.1563,464.2344 Q390.6563,464.2344 389.3281,462.5938 Q388.0156,460.9375 388.0156,457.8125 Q388.0156,454.6875 389.3281,453.0313 Q390.6563,451.375 393.1563,451.375 Q393.8594,451.375 394.5,451.5313 Q395.1563,451.6875 395.7188,451.9844 L395.7188,454.7031 Q395.0938,454.125 394.5,453.8594 Q393.9063,453.5781 393.2813,453.5781 Q391.9375,453.5781 391.25,454.6563 Q390.5625,455.7188 390.5625,457.8125 Q390.5625,459.9063 391.25,460.9844 Q391.9375,462.0469 393.2813,462.0469 Q393.9063,462.0469 394.5,461.7813 Q395.0938,461.5 395.7188,460.9219 L395.7188,463.6406 Z "/><text fill="#000000" font-family="sans-serif" font-size="12" lengthAdjust="spacingAndGlyphs" textLength="92" x="413.25" y="462.1543">LinearActuator</text><line style="stroke: #A80036; stroke-width: 1.5;" x1="290.5" x2="595.5" y1="474" y2="474"/><rect fill="none" height="6" style="stroke: #C82930; stroke-width: 1.0;" width="6" x="297.5" y="482"/><text fill="#000000" font-family="sans-serif" font-size="11" lengthAdjust="spacingAndGlyphs" textLength="120" x="309.5" y="488.2104">motor : AccelStepper</text><rect fill="none" height="6" style="stroke: #C82930; stroke-width: 1.0;" width="6" x="297.5" y="494.8047"/><text fill="#000000" font-family="sans-serif" font-size="11" lengthAdjust="spacingAndGlyphs" textLength="142" x="309.5" y="501.0151">driver : TMC2209Stepper</text><rect fill="none" height="6" style="stroke: #C82930; stroke-width: 1.0;" width="6" x="297.5" y="507.6094"/><text fill="#000000" font-family="sans-serif" font-size="11" lengthAdjust="spacingAndGlyphs" textLength="71" x="309.5" y="513.8198">leftLimit : int</text><rect fill="none" height="6" style="stroke: #C82930; stroke-width: 1.0;" width="6" x="297.5" y="520.4141"/><text fill="#000000" font-family="sans-serif" font-size="11" lengthAdjust="spacingAndGlyphs" textLength="79" x="309.5" y="526.6245">rightLimit : int</text><line style="stroke: #A80036; stroke-width: 1.5;" x1="290.5" x2="595.5" y1="533.2188" y2="533.2188"/><ellipse cx="300.5" cy="544.2188" fill="#84BE84" rx="3" ry="3" style="stroke: #038048; stroke-width: 1.0;"/><text fill="#000000" font-family="sans-serif" font-size="11" lengthAdjust="spacingAndGlyphs" textLength="281" x="309.5" y="547.4292">LinearActuator(int stepPin, int dirPin, int address)</text><ellipse cx="300.5" cy="557.0234" fill="#84BE84" rx="3" ry="3" style="stroke: #038048; stroke-width: 1.0;"/><text fill="#000000" font-family="sans-serif" font-size="11" lengthAdjust="spacingAndGlyphs" textLength="99" x="309.5" y="560.2339">~LinearActuator()</text><ellipse cx="300.5" cy="569.8281" fill="#84BE84" rx="3" ry="3" style="stroke: #038048; stroke-width: 1.0;"/><text fill="#000000" font-family="sans-serif" font-size="11" lengthAdjust="spacingAndGlyphs" textLength="114" x="309.5" y="573.0386">calibrateLeft() : bool</text><ellipse cx="300.5" cy="582.6328" fill="#84BE84" rx="3" ry="3" style="stroke: #038048; stroke-width: 1.0;"/><text fill="#000000" font-family="sans-serif" font-size="11" lengthAdjust="spacingAndGlyphs" textLength="121" x="309.5" y="585.8433">calibrateRight() : bool</text><ellipse cx="300.5" cy="595.4375" fill="#84BE84" rx="3" ry="3" style="stroke: #038048; stroke-width: 1.0;"/><text fill="#000000" font-family="sans-serif" font-size="11" lengthAdjust="spacingAndGlyphs" textLength="53" x="309.5" y="598.6479">run() : int</text><ellipse cx="300.5" cy="608.2422" fill="#84BE84" rx="3" ry="3" style="stroke: #038048; stroke-width: 1.0;"/><text fill="#000000" font-family="sans-serif" font-size="11" lengthAdjust="spacingAndGlyphs" textLength="95" x="309.5" y="611.4526">moveLeft() : void</text><ellipse cx="300.5" cy="621.0469" fill="#84BE84" rx="3" ry="3" style="stroke: #038048; stroke-width: 1.0;"/><text fill="#000000" font-family="sans-serif" font-size="11" lengthAdjust="spacingAndGlyphs" textLength="102" x="309.5" y="624.2573">moveRight() : void</text><ellipse cx="300.5" cy="633.8516" fill="#84BE84" rx="3" ry="3" style="stroke: #038048; stroke-width: 1.0;"/><text fill="#000000" font-family="sans-serif" font-size="11" lengthAdjust="spacingAndGlyphs" textLength="162" x="309.5" y="637.062">moveTo(float position) : void</text><ellipse cx="300.5" cy="646.6563" fill="#84BE84" rx="3" ry="3" style="stroke: #038048; stroke-width: 1.0;"/><text fill="#000000" font-family="sans-serif" font-size="11" lengthAdjust="spacingAndGlyphs" textLength="228" x="309.5" y="649.8667">setAcceleration(float acceleration) : void</text><ellipse cx="300.5" cy="659.4609" fill="#84BE84" rx="3" ry="3" style="stroke: #038048; stroke-width: 1.0;"/><text fill="#000000" font-family="sans-serif" font-size="11" lengthAdjust="spacingAndGlyphs" textLength="183" x="309.5" y="662.6714">setMaxSpeed(float speed) : void</text><ellipse cx="300.5" cy="672.2656" fill="#84BE84" rx="3" ry="3" style="stroke: #038048; stroke-width: 1.0;"/><text fill="#000000" font-family="sans-serif" font-size="11" lengthAdjust="spacingAndGlyphs" textLength="75" x="309.5" y="675.4761">setup() : void</text><ellipse cx="300.5" cy="685.0703" fill="#84BE84" rx="3" ry="3" style="stroke: #038048; stroke-width: 1.0;"/><text fill="#000000" font-family="sans-serif" font-size="11" lengthAdjust="spacingAndGlyphs" text-decoration="underline" textLength="114" x="309.5" y="688.2808">setup_Serial() : void</text><ellipse cx="300.5" cy="697.875" fill="#84BE84" rx="3" ry="3" style="stroke: #038048; stroke-width: 1.0;"/><text fill="#000000" font-family="sans-serif" font-size="11" lengthAdjust="spacingAndGlyphs" textLength="68" x="309.5" y="701.0854">stop() : void</text><!--MD5=[31b2194eebf44df4ffa280c9796f03c1]
class PING--><rect fill="#FEFECE" filter="url(#f55fg0otu9usq)" height="176.0469" id="PING" style="stroke: #A80036; stroke-width: 1.5;" width="336" x="493" y="8"/><ellipse cx="642.25" cy="24" fill="#ADD1B2" rx="11" ry="11" style="stroke: #A80036; stroke-width: 1.0;"/><path d="M645.2188,29.6406 Q644.6406,29.9375 644,30.0781 Q643.3594,30.2344 642.6563,30.2344 Q640.1563,30.2344 638.8281,28.5938 Q637.5156,26.9375 637.5156,23.8125 Q637.5156,20.6875 638.8281,19.0313 Q640.1563,17.375 642.6563,17.375 Q643.3594,17.375 644,17.5313 Q644.6563,17.6875 645.2188,17.9844 L645.2188,20.7031 Q644.5938,20.125 644,19.8594 Q643.4063,19.5781 642.7813,19.5781 Q641.4375,19.5781 640.75,20.6563 Q640.0625,21.7188 640.0625,23.8125 Q640.0625,25.9063 640.75,26.9844 Q641.4375,28.0469 642.7813,28.0469 Q643.4063,28.0469 644,27.7813 Q644.5938,27.5 645.2188,26.9219 L645.2188,29.6406 Z "/><text fill="#000000" font-family="sans-serif" font-size="12" lengthAdjust="spacingAndGlyphs" textLength="29" x="662.75" y="28.1543">PING</text><line style="stroke: #A80036; stroke-width: 1.5;" x1="494" x2="828" y1="40" y2="40"/><ellipse cx="504" cy="51" fill="none" rx="3" ry="3" style="stroke: #038048; stroke-width: 1.0;"/><text fill="#000000" font-family="sans-serif" font-size="11" lengthAdjust="spacingAndGlyphs" text-decoration="underline" textLength="124" x="513" y="54.2104">player1 : static Player</text><ellipse cx="504" cy="63.8047" fill="none" rx="3" ry="3" style="stroke: #038048; stroke-width: 1.0;"/><text fill="#000000" font-family="sans-serif" font-size="11" lengthAdjust="spacingAndGlyphs" text-decoration="underline" textLength="124" x="513" y="67.0151">player2 : static Player</text><ellipse cx="504" cy="76.6094" fill="none" rx="3" ry="3" style="stroke: #038048; stroke-width: 1.0;"/><text fill="#000000" font-family="sans-serif" font-size="11" lengthAdjust="spacingAndGlyphs" text-decoration="underline" textLength="124" x="513" y="79.8198">player3 : static Player</text><ellipse cx="504" cy="89.4141" fill="none" rx="3" ry="3" style="stroke: #038048; stroke-width: 1.0;"/><text fill="#000000" font-family="sans-serif" font-size="11" lengthAdjust="spacingAndGlyphs" text-decoration="underline" textLength="124" x="513" y="92.6245">player4 : static Player</text><ellipse cx="504" cy="102.2188" fill="none" rx="3" ry="3" style="stroke: #038048; stroke-width: 1.0;"/><text fill="#000000" font-family="sans-serif" font-size="11" lengthAdjust="spacingAndGlyphs" text-decoration="underline" textLength="268" x="513" y="105.4292">raspComManager : static RaspComManagment</text><ellipse cx="504" cy="115.0234" fill="none" rx="3" ry="3" style="stroke: #038048; stroke-width: 1.0;"/><text fill="#000000" font-family="sans-serif" font-size="11" lengthAdjust="spacingAndGlyphs" text-decoration="underline" textLength="310" x="513" y="118.2339">BeamSwitchReceive_task_handle : static TaskHandle_t</text><line style="stroke: #A80036; stroke-width: 1.5;" x1="494" x2="828" y1="124.8281" y2="124.8281"/><ellipse cx="504" cy="135.8281" fill="#84BE84" rx="3" ry="3" style="stroke: #038048; stroke-width: 1.0;"/><text fill="#000000" font-family="sans-serif" font-size="11" lengthAdjust="spacingAndGlyphs" textLength="35" x="513" y="139.0386">PING()</text><ellipse cx="504" cy="148.6328" fill="#84BE84" rx="3" ry="3" style="stroke: #038048; stroke-width: 1.0;"/><text fill="#000000" font-family="sans-serif" font-size="11" lengthAdjust="spacingAndGlyphs" textLength="44" x="513" y="151.8433">~PING()</text><ellipse cx="504" cy="161.4375" fill="#84BE84" rx="3" ry="3" style="stroke: #038048; stroke-width: 1.0;"/><text fill="#000000" font-family="sans-serif" font-size="11" lengthAdjust="spacingAndGlyphs" text-decoration="underline" textLength="299" x="513" y="164.6479">BeamSwitchReceive_task(void* pvParameters) : void</text><ellipse cx="504" cy="174.2422" fill="#84BE84" rx="3" ry="3" style="stroke: #038048; stroke-width: 1.0;"/><text fill="#000000" font-family="sans-serif" font-size="11" lengthAdjust="spacingAndGlyphs" text-decoration="underline" textLength="75" x="513" y="177.4526">setup() : void</text><!--MD5=[2cb47ba637a0d19583e6199456f6ad0b]
class Player--><rect fill="#FEFECE" filter="url(#f55fg0otu9usq)" height="137.6328" id="Player" style="stroke: #A80036; stroke-width: 1.5;" width="470" x="208" y="244"/><ellipse cx="419.75" cy="260" fill="#ADD1B2" rx="11" ry="11" style="stroke: #A80036; stroke-width: 1.0;"/><path d="M422.7188,265.6406 Q422.1406,265.9375 421.5,266.0781 Q420.8594,266.2344 420.1563,266.2344 Q417.6563,266.2344 416.3281,264.5938 Q415.0156,262.9375 415.0156,259.8125 Q415.0156,256.6875 416.3281,255.0313 Q417.6563,253.375 420.1563,253.375 Q420.8594,253.375 421.5,253.5313 Q422.1563,253.6875 422.7188,253.9844 L422.7188,256.7031 Q422.0938,256.125 421.5,255.8594 Q420.9063,255.5781 420.2813,255.5781 Q418.9375,255.5781 418.25,256.6563 Q417.5625,257.7188 417.5625,259.8125 Q417.5625,261.9063 418.25,262.9844 Q418.9375,264.0469 420.2813,264.0469 Q420.9063,264.0469 421.5,263.7813 Q422.0938,263.5 422.7188,262.9219 L422.7188,265.6406 Z "/><text fill="#000000" font-family="sans-serif" font-size="12" lengthAdjust="spacingAndGlyphs" textLength="38" x="440.25" y="264.1543">Player</text><line style="stroke: #A80036; stroke-width: 1.5;" x1="209" x2="677" y1="276" y2="276"/><ellipse cx="219" cy="287" fill="none" rx="3" ry="3" style="stroke: #038048; stroke-width: 1.0;"/><text fill="#000000" font-family="sans-serif" font-size="11" lengthAdjust="spacingAndGlyphs" textLength="151" x="228" y="290.2104">beamSwitch : BeamSwitch</text><ellipse cx="219" cy="299.8047" fill="none" rx="3" ry="3" style="stroke: #038048; stroke-width: 1.0;"/><text fill="#000000" font-family="sans-serif" font-size="11" lengthAdjust="spacingAndGlyphs" textLength="141" x="228" y="303.0151">actuator : LinearActuator</text><ellipse cx="219" cy="312.6094" fill="none" rx="3" ry="3" style="stroke: #038048; stroke-width: 1.0;"/><text fill="#000000" font-family="sans-serif" font-size="11" lengthAdjust="spacingAndGlyphs" textLength="109" x="228" y="315.8198">solenoid : Solenoid</text><line style="stroke: #A80036; stroke-width: 1.5;" x1="209" x2="677" y1="322.4141" y2="322.4141"/><ellipse cx="219" cy="333.4141" fill="#84BE84" rx="3" ry="3" style="stroke: #038048; stroke-width: 1.0;"/><text fill="#000000" font-family="sans-serif" font-size="11" lengthAdjust="spacingAndGlyphs" textLength="444" x="228" y="336.6245">Player(int stepPin, int dirPin, int address, int solenoidPin, int beamSwitchRPin)</text><ellipse cx="219" cy="346.2188" fill="#84BE84" rx="3" ry="3" style="stroke: #038048; stroke-width: 1.0;"/><text fill="#000000" font-family="sans-serif" font-size="11" lengthAdjust="spacingAndGlyphs" textLength="52" x="228" y="349.4292">~Player()</text><ellipse cx="219" cy="359.0234" fill="#84BE84" rx="3" ry="3" style="stroke: #038048; stroke-width: 1.0;"/><text fill="#000000" font-family="sans-serif" font-size="11" lengthAdjust="spacingAndGlyphs" textLength="58" x="228" y="362.2339">loop() : int</text><ellipse cx="219" cy="371.8281" fill="#84BE84" rx="3" ry="3" style="stroke: #038048; stroke-width: 1.0;"/><text fill="#000000" font-family="sans-serif" font-size="11" lengthAdjust="spacingAndGlyphs" textLength="66" x="228" y="375.0386">setup() : int</text><!--MD5=[f95de7c9be227099f093800bd026f9c0]
class RaspComManagment--><rect fill="#FEFECE" filter="url(#f55fg0otu9usq)" height="86.4141" id="RaspComManagment" style="stroke: #A80036; stroke-width: 1.5;" width="332" x="713" y="270"/><ellipse cx="808.75" cy="286" fill="#ADD1B2" rx="11" ry="11" style="stroke: #A80036; stroke-width: 1.0;"/><path d="M811.7188,291.6406 Q811.1406,291.9375 810.5,292.0781 Q809.8594,292.2344 809.1563,292.2344 Q806.6563,292.2344 805.3281,290.5938 Q804.0156,288.9375 804.0156,285.8125 Q804.0156,282.6875 805.3281,281.0313 Q806.6563,279.375 809.1563,279.375 Q809.8594,279.375 810.5,279.5313 Q811.1563,279.6875 811.7188,279.9844 L811.7188,282.7031 Q811.0938,282.125 810.5,281.8594 Q809.9063,281.5781 809.2813,281.5781 Q807.9375,281.5781 807.25,282.6563 Q806.5625,283.7188 806.5625,285.8125 Q806.5625,287.9063 807.25,288.9844 Q807.9375,290.0469 809.2813,290.0469 Q809.9063,290.0469 810.5,289.7813 Q811.0938,289.5 811.7188,288.9219 L811.7188,291.6406 Z "/><text fill="#000000" font-family="sans-serif" font-size="12" lengthAdjust="spacingAndGlyphs" textLength="132" x="829.25" y="290.1543">RaspComManagment</text><line style="stroke: #A80036; stroke-width: 1.5;" x1="714" x2="1044" y1="302" y2="302"/><line style="stroke: #A80036; stroke-width: 1.5;" x1="714" x2="1044" y1="310" y2="310"/><ellipse cx="724" cy="321" fill="#84BE84" rx="3" ry="3" style="stroke: #038048; stroke-width: 1.0;"/><text fill="#000000" font-family="sans-serif" font-size="11" lengthAdjust="spacingAndGlyphs" textLength="306" x="733" y="324.2104">RaspComManagment(int txPin, int rxPin, int baudRate)</text><ellipse cx="724" cy="333.8047" fill="#84BE84" rx="3" ry="3" style="stroke: #038048; stroke-width: 1.0;"/><text fill="#000000" font-family="sans-serif" font-size="11" lengthAdjust="spacingAndGlyphs" textLength="137" x="733" y="337.0151">~RaspComManagment()</text><ellipse cx="724" cy="346.6094" fill="#84BE84" rx="3" ry="3" style="stroke: #038048; stroke-width: 1.0;"/><text fill="#000000" font-family="sans-serif" font-size="11" lengthAdjust="spacingAndGlyphs" textLength="75" x="733" y="349.8198">setup() : void</text><!--MD5=[774f4e82a168727ea092e2c64952d764]
class Solenoid--><rect fill="#FEFECE" filter="url(#f55fg0otu9usq)" height="73.6094" id="Solenoid" style="stroke: #A80036; stroke-width: 1.5;" width="166" x="632" y="538"/><ellipse cx="683.75" cy="554" fill="#ADD1B2" rx="11" ry="11" style="stroke: #A80036; stroke-width: 1.0;"/><path d="M686.7188,559.6406 Q686.1406,559.9375 685.5,560.0781 Q684.8594,560.2344 684.1563,560.2344 Q681.6563,560.2344 680.3281,558.5938 Q679.0156,556.9375 679.0156,553.8125 Q679.0156,550.6875 680.3281,549.0313 Q681.6563,547.375 684.1563,547.375 Q684.8594,547.375 685.5,547.5313 Q686.1563,547.6875 686.7188,547.9844 L686.7188,550.7031 Q686.0938,550.125 685.5,549.8594 Q684.9063,549.5781 684.2813,549.5781 Q682.9375,549.5781 682.25,550.6563 Q681.5625,551.7188 681.5625,553.8125 Q681.5625,555.9063 682.25,556.9844 Q682.9375,558.0469 684.2813,558.0469 Q684.9063,558.0469 685.5,557.7813 Q686.0938,557.5 686.7188,556.9219 L686.7188,559.6406 Z "/><text fill="#000000" font-family="sans-serif" font-size="12" lengthAdjust="spacingAndGlyphs" textLength="54" x="704.25" y="558.1543">Solenoid</text><line style="stroke: #A80036; stroke-width: 1.5;" x1="633" x2="797" y1="570" y2="570"/><line style="stroke: #A80036; stroke-width: 1.5;" x1="633" x2="797" y1="578" y2="578"/><ellipse cx="643" cy="589" fill="#84BE84" rx="3" ry="3" style="stroke: #038048; stroke-width: 1.0;"/><text fill="#000000" font-family="sans-serif" font-size="11" lengthAdjust="spacingAndGlyphs" textLength="140" x="652" y="592.2104">Solenoid(int solenoidPin)</text><ellipse cx="643" cy="601.8047" fill="#84BE84" rx="3" ry="3" style="stroke: #038048; stroke-width: 1.0;"/><text fill="#000000" font-family="sans-serif" font-size="11" lengthAdjust="spacingAndGlyphs" textLength="66" x="652" y="605.0151">~Solenoid()</text><!--MD5=[3d3440c247ea6d9549ddae07c5b26dc8]
reverse link PING to Player--><path d="M563.12,193.53 C545.9,210.52 528.29,227.88 512.06,243.89 " fill="none" id="PING&lt;-Player" style="stroke: #A80036; stroke-width: 1.0;"/><polygon fill="#A80036" points="572.65,184.14,565.5692,185.5047,564.1056,192.5657,571.1864,191.201,572.65,184.14" style="stroke: #A80036; stroke-width: 1.0;"/><text fill="#000000" font-family="sans-serif" font-size="13" lengthAdjust="spacingAndGlyphs" textLength="8" x="557.0023" y="204.1306">4</text><!--MD5=[b067205dac567a7f0e4de4a1e8278f95]
reverse link PING to RaspComManagment--><path d="M758.9,193.55 C786.03,220.31 814.09,247.98 836.25,269.84 " fill="none" id="PING&lt;-RaspComManagment" style="stroke: #A80036; stroke-width: 1.0;"/><polygon fill="#A80036" points="749.35,184.14,750.8136,191.201,757.8944,192.5657,756.4308,185.5047,749.35,184.14" style="stroke: #A80036; stroke-width: 1.0;"/><!--MD5=[8974d906f5436deded3f8d9665c498e8]
reverse link Player to BeamSwitch--><path d="M337.59,390.15 C315.58,406.81 292.76,424.66 272,442 C266.19,446.85 260.3,451.87 254.39,456.99 " fill="none" id="Player&lt;-BeamSwitch" style="stroke: #A80036; stroke-width: 1.0;"/><polygon fill="#A80036" points="347.98,382.33,340.781,382.7474,338.3974,389.5532,345.5964,389.1358,347.98,382.33" style="stroke: #A80036; stroke-width: 1.0;"/><!--MD5=[c8a40b61ed2cae938dabd67da6109521]
reverse link Player to LinearActuator--><path d="M443,395.6 C443,410.4 443,426.17 443,441.98 " fill="none" id="Player&lt;-LinearActuator" style="stroke: #A80036; stroke-width: 1.0;"/><polygon fill="#A80036" points="443,382.31,439,388.31,443,394.31,447,388.31,443,382.31" style="stroke: #A80036; stroke-width: 1.0;"/><!--MD5=[0df571f1bdc863a16490465303cac24b]
reverse link Player to Solenoid--><path d="M554.05,390.1 C574.83,406.26 595.73,423.93 614,442 C643.84,471.53 672.39,510.13 691.47,537.96 " fill="none" id="Player&lt;-Solenoid" style="stroke: #A80036; stroke-width: 1.0;"/><polygon fill="#A80036" points="543.54,382.05,545.8651,388.876,553.0603,389.3551,550.7352,382.5291,543.54,382.05" style="stroke: #A80036; stroke-width: 1.0;"/><!--MD5=[c815095b9bed9caf341d6c1c14fc6660]
@startuml






class BeamSwitch {
	+BeamSwitch(int beamSwitchRPin)
	+~BeamSwitch()
	-irrecv : IRrecv
	-receive_task_handle : TaskHandle_t
	+getState() : bool
	-state : bool
	-results : decode_results
	-lastReceiveTime : int
	-{static} emitter : static IRsend
	-{static} emit_task_handle : static TaskHandle_t
	+{static} emit : static bool
	-{static} lastEmitTime : static int64_t
	-{static} rawSignal : static uint16_t[]
	+check() : void
	-{static} emit_task(void* pvParameters) : void
	+setup() : void
	+{static} setup_common_emitter() : void
}


class LinearActuator {
	+LinearActuator(int stepPin, int dirPin, int address)
	+~LinearActuator()
	-motor : AccelStepper
	-driver : TMC2209Stepper
	+calibrateLeft() : bool
	+calibrateRight() : bool
	-leftLimit : int
	-rightLimit : int
	+run() : int
	+moveLeft() : void
	+moveRight() : void
	+moveTo(float position) : void
	+setAcceleration(float acceleration) : void
	+setMaxSpeed(float speed) : void
	+setup() : void
	+{static} setup_Serial() : void
	+stop() : void
}


class PING {
	+PING()
	+~PING()
	+{static} player1 : static Player
	+{static} player2 : static Player
	+{static} player3 : static Player
	+{static} player4 : static Player
	+{static} raspComManager : static RaspComManagment
	+{static} BeamSwitchReceive_task_handle : static TaskHandle_t
	+{static} BeamSwitchReceive_task(void* pvParameters) : void
	+{static} setup() : void
}


class Player {
	+Player(int stepPin, int dirPin, int address, int solenoidPin, int beamSwitchRPin)
	+~Player()
	+beamSwitch : BeamSwitch
	+actuator : LinearActuator
	+solenoid : Solenoid
	+loop() : int
	+setup() : int
}


class RaspComManagment {
	+RaspComManagment(int txPin, int rxPin, int baudRate)
	+~RaspComManagment()
	+setup() : void
}


class Solenoid {
	+Solenoid(int solenoidPin)
	+~Solenoid()
}


namespace RunStatus {
	enum Status {
		COLLISION
		RUNNING
	}
}










PING "4" *- - Player


PING *- - RaspComManagment


Player *- - BeamSwitch


Player *- - LinearActuator


Player *- - Solenoid









@enduml

PlantUML version 1.2020.02(Sun Mar 01 10:22:07 UTC 2020)
(GPL source distribution)
Java Runtime: OpenJDK Runtime Environment
JVM: OpenJDK 64-Bit Server VM
Java Version: 11.0.24+8
Operating System: Linux
Default Encoding: UTF-8
Language: en
Country: null
--></g></svg>