<?xml version="1.0" encoding="UTF-8" standalone="no"?><svg xmlns="http://www.w3.org/2000/svg" xmlns:xlink="http://www.w3.org/1999/xlink" contentScriptType="application/ecmascript" contentStyleType="text/css" height="1010px" preserveAspectRatio="none" style="width:1063px;height:1010px;" version="1.1" viewBox="0 0 1063 1010" width="1063px" zoomAndPan="magnify"><defs><filter height="300%" id="f1le7ndehnrcf9" width="300%" x="-1" y="-1"><feGaussianBlur result="blurOut" stdDeviation="2.0"/><feColorMatrix in="blurOut" result="blurOut2" type="matrix" values="0 0 0 0 0 0 0 0 0 0 0 0 0 0 0 0 0 0 .4 0"/><feOffset dx="4.0" dy="4.0" in="blurOut2" result="blurOut3"/><feBlend in="SourceGraphic" in2="blurOut3" mode="normal"/></filter></defs><g><!--MD5=[845caa0904f1411049f3b69efd709ed4]
cluster RunStatus--><polygon fill="#FFFFFF" filter="url(#f1le7ndehnrcf9)" points="390,861,476,861,483,883.2969,496,883.2969,496,998,390,998,390,861" style="stroke: #000000; stroke-width: 1.5;"/><line style="stroke: #000000; stroke-width: 1.5;" x1="390" x2="483" y1="883.2969" y2="883.2969"/><text fill="#000000" font-family="sans-serif" font-size="14" font-weight="bold" lengthAdjust="spacingAndGlyphs" textLength="80" x="394" y="875.9951">RunStatus</text><!--MD5=[8af91c3b66a8a7491d8ba0f9fda35749]
class RunStatus.Status--><rect fill="#FEFECE" filter="url(#f1le7ndehnrcf9)" height="86.4141" id="RunStatus.Status" style="stroke: #A80036; stroke-width: 1.5;" width="73" x="406.5" y="896"/><ellipse cx="421.5" cy="912" fill="#EB937F" rx="11" ry="11" style="stroke: #A80036; stroke-width: 1.0;"/><path d="M425.6094,918 L417.8906,918 L417.8906,905.6094 L425.6094,905.6094 L425.6094,907.7656 L420.3438,907.7656 L420.3438,910.4375 L425.1094,910.4375 L425.1094,912.5938 L420.3438,912.5938 L420.3438,915.8438 L425.6094,915.8438 L425.6094,918 Z "/><text fill="#000000" font-family="sans-serif" font-size="12" lengthAdjust="spacingAndGlyphs" textLength="41" x="435.5" y="916.1543">Status</text><line style="stroke: #A80036; stroke-width: 1.5;" x1="407.5" x2="478.5" y1="928" y2="928"/><text fill="#000000" font-family="sans-serif" font-size="11" lengthAdjust="spacingAndGlyphs" textLength="60" x="412.5" y="942.2104">COLLISION</text><text fill="#000000" font-family="sans-serif" font-size="11" lengthAdjust="spacingAndGlyphs" textLength="24" x="412.5" y="955.0151">IDLE</text><text fill="#000000" font-family="sans-serif" font-size="11" lengthAdjust="spacingAndGlyphs" textLength="51" x="412.5" y="967.8198">RUNNING</text><line style="stroke: #A80036; stroke-width: 1.5;" x1="407.5" x2="478.5" y1="974.4141" y2="974.4141"/><!--MD5=[68fcd56d8725033e494281892f0f8fc2]
class BeamSwitch--><rect fill="#FEFECE" filter="url(#f1le7ndehnrcf9)" height="265.6797" id="BeamSwitch" style="stroke: #A80036; stroke-width: 1.5;" width="248" x="6" y="506"/><ellipse cx="88.25" cy="522" fill="#ADD1B2" rx="11" ry="11" style="stroke: #A80036; stroke-width: 1.0;"/><path d="M91.2188,527.6406 Q90.6406,527.9375 90,528.0781 Q89.3594,528.2344 88.6563,528.2344 Q86.1563,528.2344 84.8281,526.5938 Q83.5156,524.9375 83.5156,521.8125 Q83.5156,518.6875 84.8281,517.0313 Q86.1563,515.375 88.6563,515.375 Q89.3594,515.375 90,515.5313 Q90.6563,515.6875 91.2188,515.9844 L91.2188,518.7031 Q90.5938,518.125 90,517.8594 Q89.4063,517.5781 88.7813,517.5781 Q87.4375,517.5781 86.75,518.6563 Q86.0625,519.7188 86.0625,521.8125 Q86.0625,523.9063 86.75,524.9844 Q87.4375,526.0469 88.7813,526.0469 Q89.4063,526.0469 90,525.7813 Q90.5938,525.5 91.2188,524.9219 L91.2188,527.6406 Z "/><text fill="#000000" font-family="sans-serif" font-size="12" lengthAdjust="spacingAndGlyphs" textLength="75" x="108.75" y="526.1543">BeamSwitch</text><line style="stroke: #A80036; stroke-width: 1.5;" x1="7" x2="253" y1="538" y2="538"/><rect fill="none" height="6" style="stroke: #C82930; stroke-width: 1.0;" width="6" x="14" y="546"/><text fill="#000000" font-family="sans-serif" font-size="11" lengthAdjust="spacingAndGlyphs" textLength="80" x="26" y="552.2104">irRecv : IRrecv</text><rect fill="none" height="6" style="stroke: #C82930; stroke-width: 1.0;" width="6" x="14" y="558.8047"/><text fill="#000000" font-family="sans-serif" font-size="11" lengthAdjust="spacingAndGlyphs" textLength="203" x="26" y="565.0151">receive_task_handle : TaskHandle_t</text><rect fill="none" height="6" style="stroke: #C82930; stroke-width: 1.0;" width="6" x="14" y="571.6094"/><text fill="#000000" font-family="sans-serif" font-size="11" lengthAdjust="spacingAndGlyphs" textLength="65" x="26" y="577.8198">state : bool</text><rect fill="none" height="6" style="stroke: #C82930; stroke-width: 1.0;" width="6" x="14" y="584.4141"/><text fill="#000000" font-family="sans-serif" font-size="11" lengthAdjust="spacingAndGlyphs" textLength="139" x="26" y="590.6245">results : decode_results</text><rect fill="none" height="6" style="stroke: #C82930; stroke-width: 1.0;" width="6" x="14" y="597.2188"/><text fill="#000000" font-family="sans-serif" font-size="11" lengthAdjust="spacingAndGlyphs" textLength="118" x="26" y="603.4292">lastReceiveTime : int</text><rect fill="none" height="6" style="stroke: #C82930; stroke-width: 1.0;" width="6" x="14" y="610.0234"/><text fill="#000000" font-family="sans-serif" font-size="11" lengthAdjust="spacingAndGlyphs" text-decoration="underline" textLength="126" x="26" y="616.2339">emitter : static IRsend</text><rect fill="none" height="6" style="stroke: #C82930; stroke-width: 1.0;" width="6" x="14" y="622.8281"/><text fill="#000000" font-family="sans-serif" font-size="11" lengthAdjust="spacingAndGlyphs" text-decoration="underline" textLength="222" x="26" y="629.0386">emit_task_handle : static TaskHandle_t</text><ellipse cx="17" cy="638.6328" fill="none" rx="3" ry="3" style="stroke: #038048; stroke-width: 1.0;"/><text fill="#000000" font-family="sans-serif" font-size="11" lengthAdjust="spacingAndGlyphs" text-decoration="underline" textLength="96" x="26" y="641.8433">emit : static bool</text><rect fill="none" height="6" style="stroke: #C82930; stroke-width: 1.0;" width="6" x="14" y="648.4375"/><text fill="#000000" font-family="sans-serif" font-size="11" lengthAdjust="spacingAndGlyphs" text-decoration="underline" textLength="159" x="26" y="654.6479">lastEmitTime : static int64_t</text><rect fill="none" height="6" style="stroke: #C82930; stroke-width: 1.0;" width="6" x="14" y="661.2422"/><text fill="#000000" font-family="sans-serif" font-size="11" lengthAdjust="spacingAndGlyphs" text-decoration="underline" textLength="156" x="26" y="667.4526">rawSignal : static uint16_t[]</text><line style="stroke: #A80036; stroke-width: 1.5;" x1="7" x2="253" y1="674.0469" y2="674.0469"/><ellipse cx="17" cy="685.0469" fill="#84BE84" rx="3" ry="3" style="stroke: #038048; stroke-width: 1.0;"/><text fill="#000000" font-family="sans-serif" font-size="11" lengthAdjust="spacingAndGlyphs" textLength="189" x="26" y="688.2573">BeamSwitch(int beamSwitchRPin)</text><ellipse cx="17" cy="697.8516" fill="#84BE84" rx="3" ry="3" style="stroke: #038048; stroke-width: 1.0;"/><text fill="#000000" font-family="sans-serif" font-size="11" lengthAdjust="spacingAndGlyphs" textLength="87" x="26" y="701.062">~BeamSwitch()</text><ellipse cx="17" cy="710.6563" fill="#84BE84" rx="3" ry="3" style="stroke: #038048; stroke-width: 1.0;"/><text fill="#000000" font-family="sans-serif" font-size="11" lengthAdjust="spacingAndGlyphs" textLength="92" x="26" y="713.8667">getState() : bool</text><ellipse cx="17" cy="723.4609" fill="#84BE84" rx="3" ry="3" style="stroke: #038048; stroke-width: 1.0;"/><text fill="#000000" font-family="sans-serif" font-size="11" lengthAdjust="spacingAndGlyphs" textLength="75" x="26" y="726.6714">check() : void</text><rect fill="#F24D5C" height="6" style="stroke: #C82930; stroke-width: 1.0;" width="6" x="14" y="733.2656"/><text fill="#000000" font-family="sans-serif" font-size="11" lengthAdjust="spacingAndGlyphs" text-decoration="underline" textLength="211" x="26" y="739.4761">emit_task(void* pvParameters) : void</text><ellipse cx="17" cy="749.0703" fill="#84BE84" rx="3" ry="3" style="stroke: #038048; stroke-width: 1.0;"/><text fill="#000000" font-family="sans-serif" font-size="11" lengthAdjust="spacingAndGlyphs" textLength="75" x="26" y="752.2808">setup() : void</text><ellipse cx="17" cy="761.875" fill="#84BE84" rx="3" ry="3" style="stroke: #038048; stroke-width: 1.0;"/><text fill="#000000" font-family="sans-serif" font-size="11" lengthAdjust="spacingAndGlyphs" text-decoration="underline" textLength="177" x="26" y="765.0854">setup_common_emitter() : void</text><!--MD5=[0ce16f4c3d7cb0b09c708de0157594c0]
class LinearActuator--><rect fill="#FEFECE" filter="url(#f1le7ndehnrcf9)" height="393.7266" id="LinearActuator" style="stroke: #A80036; stroke-width: 1.5;" width="307" x="289.5" y="442"/><ellipse cx="392.75" cy="458" fill="#ADD1B2" rx="11" ry="11" style="stroke: #A80036; stroke-width: 1.0;"/><path d="M395.7188,463.6406 Q395.1406,463.9375 394.5,464.0781 Q393.8594,464.2344 393.1563,464.2344 Q390.6563,464.2344 389.3281,462.5938 Q388.0156,460.9375 388.0156,457.8125 Q388.0156,454.6875 389.3281,453.0313 Q390.6563,451.375 393.1563,451.375 Q393.8594,451.375 394.5,451.5313 Q395.1563,451.6875 395.7188,451.9844 L395.7188,454.7031 Q395.0938,454.125 394.5,453.8594 Q393.9063,453.5781 393.2813,453.5781 Q391.9375,453.5781 391.25,454.6563 Q390.5625,455.7188 390.5625,457.8125 Q390.5625,459.9063 391.25,460.9844 Q391.9375,462.0469 393.2813,462.0469 Q393.9063,462.0469 394.5,461.7813 Q395.0938,461.5 395.7188,460.9219 L395.7188,463.6406 Z "/><text fill="#000000" font-family="sans-serif" font-size="12" lengthAdjust="spacingAndGlyphs" textLength="92" x="413.25" y="462.1543">LinearActuator</text><line style="stroke: #A80036; stroke-width: 1.5;" x1="290.5" x2="595.5" y1="474" y2="474"/><rect fill="none" height="6" style="stroke: #C82930; stroke-width: 1.0;" width="6" x="297.5" y="482"/><text fill="#000000" font-family="sans-serif" font-size="11" lengthAdjust="spacingAndGlyphs" textLength="120" x="309.5" y="488.2104">motor : AccelStepper</text><rect fill="none" height="6" style="stroke: #C82930; stroke-width: 1.0;" width="6" x="297.5" y="494.8047"/><text fill="#000000" font-family="sans-serif" font-size="11" lengthAdjust="spacingAndGlyphs" textLength="151" x="309.5" y="501.0151">status : RunStatus::Status</text><rect fill="none" height="6" style="stroke: #C82930; stroke-width: 1.0;" width="6" x="297.5" y="507.6094"/><text fill="#000000" font-family="sans-serif" font-size="11" lengthAdjust="spacingAndGlyphs" textLength="142" x="309.5" y="513.8198">driver : TMC2209Stepper</text><rect fill="none" height="6" style="stroke: #C82930; stroke-width: 1.0;" width="6" x="297.5" y="520.4141"/><text fill="#000000" font-family="sans-serif" font-size="11" lengthAdjust="spacingAndGlyphs" textLength="82" x="309.5" y="526.6245">leftLimit : float</text><rect fill="none" height="6" style="stroke: #C82930; stroke-width: 1.0;" width="6" x="297.5" y="533.2188"/><text fill="#000000" font-family="sans-serif" font-size="11" lengthAdjust="spacingAndGlyphs" textLength="90" x="309.5" y="539.4292">rightLimit : float</text><line style="stroke: #A80036; stroke-width: 1.5;" x1="290.5" x2="595.5" y1="546.0234" y2="546.0234"/><ellipse cx="300.5" cy="557.0234" fill="#84BE84" rx="3" ry="3" style="stroke: #038048; stroke-width: 1.0;"/><text fill="#000000" font-family="sans-serif" font-size="11" lengthAdjust="spacingAndGlyphs" textLength="281" x="309.5" y="560.2339">LinearActuator(int stepPin, int dirPin, int address)</text><ellipse cx="300.5" cy="569.8281" fill="#84BE84" rx="3" ry="3" style="stroke: #038048; stroke-width: 1.0;"/><text fill="#000000" font-family="sans-serif" font-size="11" lengthAdjust="spacingAndGlyphs" textLength="99" x="309.5" y="573.0386">~LinearActuator()</text><ellipse cx="300.5" cy="582.6328" fill="#84BE84" rx="3" ry="3" style="stroke: #038048; stroke-width: 1.0;"/><text fill="#000000" font-family="sans-serif" font-size="11" lengthAdjust="spacingAndGlyphs" textLength="114" x="309.5" y="585.8433">calibrateLeft() : bool</text><ellipse cx="300.5" cy="595.4375" fill="#84BE84" rx="3" ry="3" style="stroke: #038048; stroke-width: 1.0;"/><text fill="#000000" font-family="sans-serif" font-size="11" lengthAdjust="spacingAndGlyphs" textLength="121" x="309.5" y="598.6479">calibrateRight() : bool</text><ellipse cx="300.5" cy="608.2422" fill="#84BE84" rx="3" ry="3" style="stroke: #038048; stroke-width: 1.0;"/><text fill="#000000" font-family="sans-serif" font-size="11" lengthAdjust="spacingAndGlyphs" textLength="165" x="309.5" y="611.4526">checkRightCalibration() : bool</text><ellipse cx="300.5" cy="621.0469" fill="#84BE84" rx="3" ry="3" style="stroke: #038048; stroke-width: 1.0;"/><text fill="#000000" font-family="sans-serif" font-size="11" lengthAdjust="spacingAndGlyphs" textLength="112" x="309.5" y="624.2573">isCalibrated() : bool</text><ellipse cx="300.5" cy="633.8516" fill="#84BE84" rx="3" ry="3" style="stroke: #038048; stroke-width: 1.0;"/><text fill="#000000" font-family="sans-serif" font-size="11" lengthAdjust="spacingAndGlyphs" textLength="133" x="309.5" y="637.062">isLeftCalibrated() : bool</text><ellipse cx="300.5" cy="646.6563" fill="#84BE84" rx="3" ry="3" style="stroke: #038048; stroke-width: 1.0;"/><text fill="#000000" font-family="sans-serif" font-size="11" lengthAdjust="spacingAndGlyphs" textLength="140" x="309.5" y="649.8667">isRightCalibrated() : bool</text><ellipse cx="300.5" cy="659.4609" fill="#84BE84" rx="3" ry="3" style="stroke: #038048; stroke-width: 1.0;"/><text fill="#000000" font-family="sans-serif" font-size="11" lengthAdjust="spacingAndGlyphs" textLength="101" x="309.5" y="662.6714">amplitude() : float</text><ellipse cx="300.5" cy="672.2656" fill="#84BE84" rx="3" ry="3" style="stroke: #038048; stroke-width: 1.0;"/><text fill="#000000" font-family="sans-serif" font-size="11" lengthAdjust="spacingAndGlyphs" textLength="131" x="309.5" y="675.4761">currentPosition() : float</text><ellipse cx="300.5" cy="685.0703" fill="#84BE84" rx="3" ry="3" style="stroke: #038048; stroke-width: 1.0;"/><text fill="#000000" font-family="sans-serif" font-size="11" lengthAdjust="spacingAndGlyphs" textLength="53" x="309.5" y="688.2808">run() : int</text><ellipse cx="300.5" cy="697.875" fill="#84BE84" rx="3" ry="3" style="stroke: #038048; stroke-width: 1.0;"/><text fill="#000000" font-family="sans-serif" font-size="11" lengthAdjust="spacingAndGlyphs" textLength="108" x="309.5" y="701.0854">instantStop() : void</text><ellipse cx="300.5" cy="710.6797" fill="#84BE84" rx="3" ry="3" style="stroke: #038048; stroke-width: 1.0;"/><text fill="#000000" font-family="sans-serif" font-size="11" lengthAdjust="spacingAndGlyphs" textLength="95" x="309.5" y="713.8901">moveLeft() : void</text><ellipse cx="300.5" cy="723.4844" fill="#84BE84" rx="3" ry="3" style="stroke: #038048; stroke-width: 1.0;"/><text fill="#000000" font-family="sans-serif" font-size="11" lengthAdjust="spacingAndGlyphs" textLength="102" x="309.5" y="726.6948">moveRight() : void</text><ellipse cx="300.5" cy="736.2891" fill="#84BE84" rx="3" ry="3" style="stroke: #038048; stroke-width: 1.0;"/><text fill="#000000" font-family="sans-serif" font-size="11" lengthAdjust="spacingAndGlyphs" textLength="162" x="309.5" y="739.4995">moveTo(float position) : void</text><ellipse cx="300.5" cy="749.0938" fill="#84BE84" rx="3" ry="3" style="stroke: #038048; stroke-width: 1.0;"/><text fill="#000000" font-family="sans-serif" font-size="11" lengthAdjust="spacingAndGlyphs" textLength="228" x="309.5" y="752.3042">setAcceleration(float acceleration) : void</text><rect fill="#F24D5C" height="6" style="stroke: #C82930; stroke-width: 1.0;" width="6" x="297.5" y="758.8984"/><text fill="#000000" font-family="sans-serif" font-size="11" lengthAdjust="spacingAndGlyphs" textLength="223" x="309.5" y="765.1089">setCurrentPosition(float position) : void</text><ellipse cx="300.5" cy="774.7031" fill="#84BE84" rx="3" ry="3" style="stroke: #038048; stroke-width: 1.0;"/><text fill="#000000" font-family="sans-serif" font-size="11" lengthAdjust="spacingAndGlyphs" textLength="183" x="309.5" y="777.9136">setMaxSpeed(float speed) : void</text><ellipse cx="300.5" cy="787.5078" fill="#84BE84" rx="3" ry="3" style="stroke: #038048; stroke-width: 1.0;"/><text fill="#000000" font-family="sans-serif" font-size="11" lengthAdjust="spacingAndGlyphs" textLength="161" x="309.5" y="790.7183">setSpeed(float speed) : void</text><ellipse cx="300.5" cy="800.3125" fill="#84BE84" rx="3" ry="3" style="stroke: #038048; stroke-width: 1.0;"/><text fill="#000000" font-family="sans-serif" font-size="11" lengthAdjust="spacingAndGlyphs" textLength="75" x="309.5" y="803.5229">setup() : void</text><ellipse cx="300.5" cy="813.1172" fill="#84BE84" rx="3" ry="3" style="stroke: #038048; stroke-width: 1.0;"/><text fill="#000000" font-family="sans-serif" font-size="11" lengthAdjust="spacingAndGlyphs" text-decoration="underline" textLength="114" x="309.5" y="816.3276">setup_Serial() : void</text><ellipse cx="300.5" cy="825.9219" fill="#84BE84" rx="3" ry="3" style="stroke: #038048; stroke-width: 1.0;"/><text fill="#000000" font-family="sans-serif" font-size="11" lengthAdjust="spacingAndGlyphs" textLength="68" x="309.5" y="829.1323">stop() : void</text><!--MD5=[31b2194eebf44df4ffa280c9796f03c1]
class PING--><rect fill="#FEFECE" filter="url(#f1le7ndehnrcf9)" height="176.0469" id="PING" style="stroke: #A80036; stroke-width: 1.5;" width="336" x="495" y="8"/><ellipse cx="644.25" cy="24" fill="#ADD1B2" rx="11" ry="11" style="stroke: #A80036; stroke-width: 1.0;"/><path d="M647.2188,29.6406 Q646.6406,29.9375 646,30.0781 Q645.3594,30.2344 644.6563,30.2344 Q642.1563,30.2344 640.8281,28.5938 Q639.5156,26.9375 639.5156,23.8125 Q639.5156,20.6875 640.8281,19.0313 Q642.1563,17.375 644.6563,17.375 Q645.3594,17.375 646,17.5313 Q646.6563,17.6875 647.2188,17.9844 L647.2188,20.7031 Q646.5938,20.125 646,19.8594 Q645.4063,19.5781 644.7813,19.5781 Q643.4375,19.5781 642.75,20.6563 Q642.0625,21.7188 642.0625,23.8125 Q642.0625,25.9063 642.75,26.9844 Q643.4375,28.0469 644.7813,28.0469 Q645.4063,28.0469 646,27.7813 Q646.5938,27.5 647.2188,26.9219 L647.2188,29.6406 Z "/><text fill="#000000" font-family="sans-serif" font-size="12" lengthAdjust="spacingAndGlyphs" textLength="29" x="664.75" y="28.1543">PING</text><line style="stroke: #A80036; stroke-width: 1.5;" x1="496" x2="830" y1="40" y2="40"/><rect fill="none" height="6" style="stroke: #C82930; stroke-width: 1.0;" width="6" x="503" y="48"/><text fill="#000000" font-family="sans-serif" font-size="11" lengthAdjust="spacingAndGlyphs" text-decoration="underline" textLength="124" x="515" y="54.2104">player1 : static Player</text><rect fill="none" height="6" style="stroke: #C82930; stroke-width: 1.0;" width="6" x="503" y="60.8047"/><text fill="#000000" font-family="sans-serif" font-size="11" lengthAdjust="spacingAndGlyphs" text-decoration="underline" textLength="124" x="515" y="67.0151">player2 : static Player</text><rect fill="none" height="6" style="stroke: #C82930; stroke-width: 1.0;" width="6" x="503" y="73.6094"/><text fill="#000000" font-family="sans-serif" font-size="11" lengthAdjust="spacingAndGlyphs" text-decoration="underline" textLength="124" x="515" y="79.8198">player3 : static Player</text><rect fill="none" height="6" style="stroke: #C82930; stroke-width: 1.0;" width="6" x="503" y="86.4141"/><text fill="#000000" font-family="sans-serif" font-size="11" lengthAdjust="spacingAndGlyphs" text-decoration="underline" textLength="124" x="515" y="92.6245">player4 : static Player</text><rect fill="none" height="6" style="stroke: #C82930; stroke-width: 1.0;" width="6" x="503" y="99.2188"/><text fill="#000000" font-family="sans-serif" font-size="11" lengthAdjust="spacingAndGlyphs" text-decoration="underline" textLength="275" x="515" y="105.4292">raspComManager : static RaspComManagement</text><rect fill="none" height="6" style="stroke: #C82930; stroke-width: 1.0;" width="6" x="503" y="112.0234"/><text fill="#000000" font-family="sans-serif" font-size="11" lengthAdjust="spacingAndGlyphs" text-decoration="underline" textLength="310" x="515" y="118.2339">BeamSwitchReceive_task_handle : static TaskHandle_t</text><line style="stroke: #A80036; stroke-width: 1.5;" x1="496" x2="830" y1="124.8281" y2="124.8281"/><rect fill="#F24D5C" height="6" style="stroke: #C82930; stroke-width: 1.0;" width="6" x="503" y="132.8281"/><text fill="#000000" font-family="sans-serif" font-size="11" lengthAdjust="spacingAndGlyphs" textLength="35" x="515" y="139.0386">PING()</text><ellipse cx="506" cy="148.6328" fill="#84BE84" rx="3" ry="3" style="stroke: #038048; stroke-width: 1.0;"/><text fill="#000000" font-family="sans-serif" font-size="11" lengthAdjust="spacingAndGlyphs" textLength="44" x="515" y="151.8433">~PING()</text><rect fill="#F24D5C" height="6" style="stroke: #C82930; stroke-width: 1.0;" width="6" x="503" y="158.4375"/><text fill="#000000" font-family="sans-serif" font-size="11" lengthAdjust="spacingAndGlyphs" text-decoration="underline" textLength="299" x="515" y="164.6479">BeamSwitchReceive_task(void* pvParameters) : void</text><ellipse cx="506" cy="174.2422" fill="#84BE84" rx="3" ry="3" style="stroke: #038048; stroke-width: 1.0;"/><text fill="#000000" font-family="sans-serif" font-size="11" lengthAdjust="spacingAndGlyphs" text-decoration="underline" textLength="75" x="515" y="177.4526">setup() : void</text><!--MD5=[2cb47ba637a0d19583e6199456f6ad0b]
class Player--><rect fill="#FEFECE" filter="url(#f1le7ndehnrcf9)" height="137.6328" id="Player" style="stroke: #A80036; stroke-width: 1.5;" width="470" x="208" y="244"/><ellipse cx="419.75" cy="260" fill="#ADD1B2" rx="11" ry="11" style="stroke: #A80036; stroke-width: 1.0;"/><path d="M422.7188,265.6406 Q422.1406,265.9375 421.5,266.0781 Q420.8594,266.2344 420.1563,266.2344 Q417.6563,266.2344 416.3281,264.5938 Q415.0156,262.9375 415.0156,259.8125 Q415.0156,256.6875 416.3281,255.0313 Q417.6563,253.375 420.1563,253.375 Q420.8594,253.375 421.5,253.5313 Q422.1563,253.6875 422.7188,253.9844 L422.7188,256.7031 Q422.0938,256.125 421.5,255.8594 Q420.9063,255.5781 420.2813,255.5781 Q418.9375,255.5781 418.25,256.6563 Q417.5625,257.7188 417.5625,259.8125 Q417.5625,261.9063 418.25,262.9844 Q418.9375,264.0469 420.2813,264.0469 Q420.9063,264.0469 421.5,263.7813 Q422.0938,263.5 422.7188,262.9219 L422.7188,265.6406 Z "/><text fill="#000000" font-family="sans-serif" font-size="12" lengthAdjust="spacingAndGlyphs" textLength="38" x="440.25" y="264.1543">Player</text><line style="stroke: #A80036; stroke-width: 1.5;" x1="209" x2="677" y1="276" y2="276"/><ellipse cx="219" cy="287" fill="none" rx="3" ry="3" style="stroke: #038048; stroke-width: 1.0;"/><text fill="#000000" font-family="sans-serif" font-size="11" lengthAdjust="spacingAndGlyphs" textLength="151" x="228" y="290.2104">beamSwitch : BeamSwitch</text><ellipse cx="219" cy="299.8047" fill="none" rx="3" ry="3" style="stroke: #038048; stroke-width: 1.0;"/><text fill="#000000" font-family="sans-serif" font-size="11" lengthAdjust="spacingAndGlyphs" textLength="141" x="228" y="303.0151">actuator : LinearActuator</text><ellipse cx="219" cy="312.6094" fill="none" rx="3" ry="3" style="stroke: #038048; stroke-width: 1.0;"/><text fill="#000000" font-family="sans-serif" font-size="11" lengthAdjust="spacingAndGlyphs" textLength="109" x="228" y="315.8198">solenoid : Solenoid</text><line style="stroke: #A80036; stroke-width: 1.5;" x1="209" x2="677" y1="322.4141" y2="322.4141"/><ellipse cx="219" cy="333.4141" fill="#84BE84" rx="3" ry="3" style="stroke: #038048; stroke-width: 1.0;"/><text fill="#000000" font-family="sans-serif" font-size="11" lengthAdjust="spacingAndGlyphs" textLength="444" x="228" y="336.6245">Player(int stepPin, int dirPin, int address, int solenoidPin, int beamSwitchRPin)</text><ellipse cx="219" cy="346.2188" fill="#84BE84" rx="3" ry="3" style="stroke: #038048; stroke-width: 1.0;"/><text fill="#000000" font-family="sans-serif" font-size="11" lengthAdjust="spacingAndGlyphs" textLength="52" x="228" y="349.4292">~Player()</text><ellipse cx="219" cy="359.0234" fill="#84BE84" rx="3" ry="3" style="stroke: #038048; stroke-width: 1.0;"/><text fill="#000000" font-family="sans-serif" font-size="11" lengthAdjust="spacingAndGlyphs" textLength="58" x="228" y="362.2339">loop() : int</text><ellipse cx="219" cy="371.8281" fill="#84BE84" rx="3" ry="3" style="stroke: #038048; stroke-width: 1.0;"/><text fill="#000000" font-family="sans-serif" font-size="11" lengthAdjust="spacingAndGlyphs" textLength="66" x="228" y="375.0386">setup() : int</text><!--MD5=[760b531b568e8db29d8104fa603dea6e]
class RaspComManagement--><rect fill="#FEFECE" filter="url(#f1le7ndehnrcf9)" height="86.4141" id="RaspComManagement" style="stroke: #A80036; stroke-width: 1.5;" width="339" x="713.5" y="270"/><ellipse cx="808.75" cy="286" fill="#ADD1B2" rx="11" ry="11" style="stroke: #A80036; stroke-width: 1.0;"/><path d="M811.7188,291.6406 Q811.1406,291.9375 810.5,292.0781 Q809.8594,292.2344 809.1563,292.2344 Q806.6563,292.2344 805.3281,290.5938 Q804.0156,288.9375 804.0156,285.8125 Q804.0156,282.6875 805.3281,281.0313 Q806.6563,279.375 809.1563,279.375 Q809.8594,279.375 810.5,279.5313 Q811.1563,279.6875 811.7188,279.9844 L811.7188,282.7031 Q811.0938,282.125 810.5,281.8594 Q809.9063,281.5781 809.2813,281.5781 Q807.9375,281.5781 807.25,282.6563 Q806.5625,283.7188 806.5625,285.8125 Q806.5625,287.9063 807.25,288.9844 Q807.9375,290.0469 809.2813,290.0469 Q809.9063,290.0469 810.5,289.7813 Q811.0938,289.5 811.7188,288.9219 L811.7188,291.6406 Z "/><text fill="#000000" font-family="sans-serif" font-size="12" lengthAdjust="spacingAndGlyphs" textLength="140" x="829.25" y="290.1543">RaspComManagement</text><line style="stroke: #A80036; stroke-width: 1.5;" x1="714.5" x2="1051.5" y1="302" y2="302"/><line style="stroke: #A80036; stroke-width: 1.5;" x1="714.5" x2="1051.5" y1="310" y2="310"/><ellipse cx="724.5" cy="321" fill="#84BE84" rx="3" ry="3" style="stroke: #038048; stroke-width: 1.0;"/><text fill="#000000" font-family="sans-serif" font-size="11" lengthAdjust="spacingAndGlyphs" textLength="313" x="733.5" y="324.2104">RaspComManagement(int txPin, int rxPin, int baudRate)</text><ellipse cx="724.5" cy="333.8047" fill="#84BE84" rx="3" ry="3" style="stroke: #038048; stroke-width: 1.0;"/><text fill="#000000" font-family="sans-serif" font-size="11" lengthAdjust="spacingAndGlyphs" textLength="144" x="733.5" y="337.0151">~RaspComManagement()</text><ellipse cx="724.5" cy="346.6094" fill="#84BE84" rx="3" ry="3" style="stroke: #038048; stroke-width: 1.0;"/><text fill="#000000" font-family="sans-serif" font-size="11" lengthAdjust="spacingAndGlyphs" textLength="75" x="733.5" y="349.8198">setup() : void</text><!--MD5=[774f4e82a168727ea092e2c64952d764]
class Solenoid--><rect fill="#FEFECE" filter="url(#f1le7ndehnrcf9)" height="73.6094" id="Solenoid" style="stroke: #A80036; stroke-width: 1.5;" width="166" x="632" y="602"/><ellipse cx="683.75" cy="618" fill="#ADD1B2" rx="11" ry="11" style="stroke: #A80036; stroke-width: 1.0;"/><path d="M686.7188,623.6406 Q686.1406,623.9375 685.5,624.0781 Q684.8594,624.2344 684.1563,624.2344 Q681.6563,624.2344 680.3281,622.5938 Q679.0156,620.9375 679.0156,617.8125 Q679.0156,614.6875 680.3281,613.0313 Q681.6563,611.375 684.1563,611.375 Q684.8594,611.375 685.5,611.5313 Q686.1563,611.6875 686.7188,611.9844 L686.7188,614.7031 Q686.0938,614.125 685.5,613.8594 Q684.9063,613.5781 684.2813,613.5781 Q682.9375,613.5781 682.25,614.6563 Q681.5625,615.7188 681.5625,617.8125 Q681.5625,619.9063 682.25,620.9844 Q682.9375,622.0469 684.2813,622.0469 Q684.9063,622.0469 685.5,621.7813 Q686.0938,621.5 686.7188,620.9219 L686.7188,623.6406 Z "/><text fill="#000000" font-family="sans-serif" font-size="12" lengthAdjust="spacingAndGlyphs" textLength="54" x="704.25" y="622.1543">Solenoid</text><line style="stroke: #A80036; stroke-width: 1.5;" x1="633" x2="797" y1="634" y2="634"/><line style="stroke: #A80036; stroke-width: 1.5;" x1="633" x2="797" y1="642" y2="642"/><ellipse cx="643" cy="653" fill="#84BE84" rx="3" ry="3" style="stroke: #038048; stroke-width: 1.0;"/><text fill="#000000" font-family="sans-serif" font-size="11" lengthAdjust="spacingAndGlyphs" textLength="140" x="652" y="656.2104">Solenoid(int solenoidPin)</text><ellipse cx="643" cy="665.8047" fill="#84BE84" rx="3" ry="3" style="stroke: #038048; stroke-width: 1.0;"/><text fill="#000000" font-family="sans-serif" font-size="11" lengthAdjust="spacingAndGlyphs" textLength="66" x="652" y="669.0151">~Solenoid()</text><!--MD5=[8d8ed2d26b7338aefecda9fd8d1473bd]
reverse link LinearActuator to RunStatus.Status--><path d="M443,849.36 C443,866.59 443,882.52 443,895.99 " fill="none" id="LinearActuator&lt;-RunStatus.Status" style="stroke: #A80036; stroke-width: 1.0;"/><polygon fill="#A80036" points="443,836.28,439,842.28,443,848.28,447,842.28,443,836.28" style="stroke: #A80036; stroke-width: 1.0;"/><!--MD5=[3d3440c247ea6d9549ddae07c5b26dc8]
reverse link PING to Player--><path d="M564.23,193.53 C546.84,210.52 529.08,227.88 512.7,243.89 " fill="none" id="PING&lt;-Player" style="stroke: #A80036; stroke-width: 1.0;"/><polygon fill="#A80036" points="573.83,184.14,566.7429,185.4717,565.2464,192.5258,572.3335,191.1941,573.83,184.14" style="stroke: #A80036; stroke-width: 1.0;"/><text fill="#000000" font-family="sans-serif" font-size="13" lengthAdjust="spacingAndGlyphs" textLength="8" x="558.1144" y="204.1306">4</text><!--MD5=[e09b457801a70dba8834c32de8f4d06f]
reverse link PING to RaspComManagement--><path d="M761.8,193.55 C789.18,220.31 817.49,247.98 839.86,269.84 " fill="none" id="PING&lt;-RaspComManagement" style="stroke: #A80036; stroke-width: 1.0;"/><polygon fill="#A80036" points="752.17,184.14,753.6665,191.1941,760.7536,192.5258,759.2571,185.4717,752.17,184.14" style="stroke: #A80036; stroke-width: 1.0;"/><!--MD5=[8974d906f5436deded3f8d9665c498e8]
reverse link Player to BeamSwitch--><path d="M330.8,390.32 C310.31,406.35 289.81,423.92 272,442 C252.84,461.46 234.25,483.68 217.19,505.99 " fill="none" id="Player&lt;-BeamSwitch" style="stroke: #A80036; stroke-width: 1.0;"/><polygon fill="#A80036" points="341.17,382.34,333.9756,382.8302,331.661,389.6597,338.8554,389.1695,341.17,382.34" style="stroke: #A80036; stroke-width: 1.0;"/><!--MD5=[c8a40b61ed2cae938dabd67da6109521]
reverse link Player to LinearActuator--><path d="M443,395.35 C443,409.91 443,425.65 443,441.87 " fill="none" id="Player&lt;-LinearActuator" style="stroke: #A80036; stroke-width: 1.0;"/><polygon fill="#A80036" points="443,382.32,439,388.32,443,394.32,447,388.32,443,382.32" style="stroke: #A80036; stroke-width: 1.0;"/><!--MD5=[0df571f1bdc863a16490465303cac24b]
reverse link Player to Solenoid--><path d="M560.29,390.51 C579.59,406.14 598.37,423.52 614,442 C655.53,491.1 686.05,560.17 702.12,601.85 " fill="none" id="Player&lt;-Solenoid" style="stroke: #A80036; stroke-width: 1.0;"/><polygon fill="#A80036" points="549.85,382.25,552.0729,389.1099,559.2602,389.6964,557.0372,382.8365,549.85,382.25" style="stroke: #A80036; stroke-width: 1.0;"/><!--MD5=[bcc32f40fae37482398d58c6cddc9826]
@startuml






class BeamSwitch {
	+BeamSwitch(int beamSwitchRPin)
	+~BeamSwitch()
	-irRecv : IRrecv
	-receive_task_handle : TaskHandle_t
	+getState() : bool
	-state : bool
	-results : decode_results
	-lastReceiveTime : int
	-{static} emitter : static IRsend
	-{static} emit_task_handle : static TaskHandle_t
	+{static} emit : static bool
	-{static} lastEmitTime : static int64_t
	-{static} rawSignal : static uint16_t[]
	+check() : void
	-{static} emit_task(void* pvParameters) : void
	+setup() : void
	+{static} setup_common_emitter() : void
}


class LinearActuator {
	+LinearActuator(int stepPin, int dirPin, int address)
	+~LinearActuator()
	-motor : AccelStepper
	-status : RunStatus::Status
	-driver : TMC2209Stepper
	+calibrateLeft() : bool
	+calibrateRight() : bool
	+checkRightCalibration() : bool
	+isCalibrated() : bool
	+isLeftCalibrated() : bool
	+isRightCalibrated() : bool
	+amplitude() : float
	+currentPosition() : float
	-leftLimit : float
	-rightLimit : float
	+run() : int
	+instantStop() : void
	+moveLeft() : void
	+moveRight() : void
	+moveTo(float position) : void
	+setAcceleration(float acceleration) : void
	-setCurrentPosition(float position) : void
	+setMaxSpeed(float speed) : void
	+setSpeed(float speed) : void
	+setup() : void
	+{static} setup_Serial() : void
	+stop() : void
}


class PING {
	-PING()
	+~PING()
	-{static} player1 : static Player
	-{static} player2 : static Player
	-{static} player3 : static Player
	-{static} player4 : static Player
	-{static} raspComManager : static RaspComManagement
	-{static} BeamSwitchReceive_task_handle : static TaskHandle_t
	-{static} BeamSwitchReceive_task(void* pvParameters) : void
	+{static} setup() : void
}


class Player {
	+Player(int stepPin, int dirPin, int address, int solenoidPin, int beamSwitchRPin)
	+~Player()
	+beamSwitch : BeamSwitch
	+actuator : LinearActuator
	+solenoid : Solenoid
	+loop() : int
	+setup() : int
}


class RaspComManagement {
	+RaspComManagement(int txPin, int rxPin, int baudRate)
	+~RaspComManagement()
	+setup() : void
}


class Solenoid {
	+Solenoid(int solenoidPin)
	+~Solenoid()
}


namespace RunStatus {
	enum Status {
		COLLISION
		IDLE
		RUNNING
	}
}










LinearActuator *- - RunStatus.Status


PING "4" *- - Player


PING *- - RaspComManagement


Player *- - BeamSwitch


Player *- - LinearActuator


Player *- - Solenoid









@enduml

PlantUML version 1.2020.02(Sun Mar 01 10:22:07 UTC 2020)
(GPL source distribution)
Java Runtime: OpenJDK Runtime Environment
JVM: OpenJDK 64-Bit Server VM
Java Version: 11.0.25+9
Operating System: Linux
Default Encoding: UTF-8
Language: en
Country: null
--></g></svg>